<svg width="549" height="1132" viewBox="0 0 549 1132" fill="none" xmlns="http://www.w3.org/2000/svg">
<g clip-path="url(#clip0_197_351)">
<path fill-rule="evenodd" clip-rule="evenodd" d="M-1182.07 735.589C-1188 739.25 -1191.34 745.651 -1190.75 752.296C-1190.48 755.3 -1189.4 758.231 -1187.63 760.765L-1179.24 772.729C-1181.05 775.881 -1181.91 779.508 -1181.59 783.167C-1181.28 786.529 -1180.01 789.753 -1177.9 792.514L-1169.88 802.974C-1171.87 806.278 -1172.79 810.111 -1172.45 814.029L-1172.45 814.018C-1172.12 817.751 -1170.65 821.289 -1168.19 824.253L-1160.6 833.368C-1162.72 836.817 -1163.71 840.834 -1163.35 844.896L-1163.36 844.898C-1162.99 849 -1161.31 852.839 -1158.47 856.004L-1151.44 863.839C-1153.64 867.392 -1154.65 871.521 -1154.27 875.755C-1153.88 880.25 -1151.97 884.39 -1148.74 887.742L-1142.33 894.407C-1144.57 898.065 -1145.6 902.303 -1145.22 906.627C-1144.8 911.435 -1142.6 915.996 -1139.03 919.482L-1133.3 925.057C-1135.55 928.798 -1136.59 933.122 -1136.2 937.491C-1135.75 942.681 -1133.3 947.551 -1129.31 951.21L-1124.32 955.779C-1126.55 959.586 -1127.57 963.967 -1127.18 968.368C-1126.69 973.961 -1123.99 979.128 -1119.59 982.936L-1115.41 986.549C-1117.6 990.401 -1118.57 994.766 -1118.18 999.235L-1118.18 999.223C-1117.66 1005.22 -1114.71 1010.71 -1109.87 1014.66L-1106.54 1017.4C-1108.66 1021.28 -1109.59 1025.65 -1109.21 1030.1C-1108.64 1036.51 -1105.42 1042.29 -1100.16 1046.39L-1097.71 1048.3C-1099.74 1052.2 -1100.63 1056.56 -1100.24 1060.98C-1099.65 1067.69 -1096.08 1073.94 -1090.45 1078.12L-1088.91 1079.26C-1090.84 1083.16 -1091.68 1087.5 -1091.29 1091.85C-1090.66 1098.98 -1086.81 1105.54 -1080.74 1109.84L-1080.13 1110.26C-1081.95 1114.16 -1082.73 1118.45 -1082.35 1122.73L-1082.34 1122.73C-1081.69 1130.13 -1077.7 1136.89 -1071.37 1141.32C-1073.07 1145.19 -1073.78 1149.41 -1073.41 1153.61C-1072.75 1161.05 -1068.85 1167.81 -1062.63 1172.36C-1064.22 1176.19 -1064.87 1180.3 -1064.49 1184.49C-1063.83 1191.98 -1060.01 1198.75 -1053.87 1203.43C-1055.36 1207.22 -1055.94 1211.26 -1055.58 1215.36L-1055.59 1215.35C-1054.92 1222.91 -1051.17 1229.7 -1045.12 1234.48C-1046.51 1238.23 -1047.05 1242.21 -1046.69 1246.24L-1046.68 1246.24C-1046.02 1253.72 -1042.25 1260.64 -1036.35 1265.54C-1037.64 1269.25 -1038.13 1273.17 -1037.79 1277.12L-1037.8 1277.12C-1037.13 1284.64 -1033.42 1291.6 -1027.58 1296.6C-1028.79 1300.27 -1029.24 1304.12 -1028.89 1308C-1028.23 1315.58 -1024.58 1322.55 -1018.81 1327.65C-1019.94 1331.27 -1020.35 1335.07 -1020.02 1338.88L-1020.03 1338.88C-1019.35 1346.52 -1015.75 1353.53 -1010.04 1358.72C-1011.09 1362.3 -1011.47 1366.03 -1011.14 1369.76C-1010.46 1377.45 -1006.92 1384.49 -1001.28 1389.77C-1002.26 1393.31 -1002.6 1396.98 -1002.28 1400.66L-1002.28 1400.65C-1001.28 1411.92 -994.327 1421.76 -983.667 1426.99L-40.1509 1890.4C-31.8867 1894.46 -22.4212 1895.27 -13.5051 1892.65C-4.5876 1890.04 2.70621 1884.34 7.03904 1876.58L501.781 991.911C504.863 986.394 506.202 980.208 505.666 974.024C504.68 962.767 497.721 952.911 487.062 947.677L-456.455 484.276C-461.214 481.938 -466.371 480.682 -471.592 480.534C-475.04 479.355 -478.638 478.715 -482.268 478.625C-485.753 477.423 -489.36 476.803 -492.945 476.729C-496.388 475.514 -499.999 474.867 -503.648 474.802C-507.07 473.58 -510.667 472.932 -514.306 472.879C-517.754 471.632 -521.35 471.006 -524.925 470.962C-528.365 469.684 -532.012 469.021 -535.708 469.004C-539.073 467.744 -542.648 467.091 -546.277 467.077C-549.682 465.771 -553.316 465.105 -557.008 465.115C-560.371 463.81 -563.974 463.149 -567.641 463.17C-571.061 461.816 -574.692 461.171 -578.299 461.205C-581.705 459.828 -585.339 459.177 -588.948 459.224C-592.29 457.84 -595.921 457.154 -599.639 457.226C-603.009 455.812 -606.637 455.154 -610.241 455.232C-613.548 453.796 -617.187 453.09 -620.932 453.196C-624.054 451.82 -627.491 451.115 -631.041 451.156C-631.229 451.158 -631.416 451.162 -631.603 451.168C-634.936 449.675 -638.588 448.993 -642.214 449.128C-645.539 447.596 -649.208 446.899 -652.853 447.053C-656.16 445.491 -659.838 444.782 -663.491 444.956C-666.774 443.369 -670.451 442.649 -674.107 442.842C-677.366 441.226 -681.046 440.49 -684.708 440.7C-690.795 437.597 -698.468 437.651 -704.653 441.46L-1182.07 735.589ZM-689.787 441.622C-694.183 440.541 -699.034 441.143 -703.126 443.66L-1180.52 737.786C-1185.6 740.915 -1188.45 746.393 -1187.94 752.078C-1187.72 754.645 -1186.8 757.151 -1185.28 759.316L-1177.58 770.299C-1176.4 768.83 -1174.98 767.517 -1173.35 766.419L-695.104 444.175C-693.435 443.05 -691.642 442.203 -689.787 441.622ZM-1175.95 772.63C-1174.83 771.075 -1173.4 769.691 -1171.71 768.547L-693.488 446.295C-691.008 444.627 -688.21 443.668 -685.373 443.376C-684.466 443.893 -683.605 444.495 -682.807 445.18C-683.756 445.669 -684.676 446.235 -685.557 446.878L-1160.7 794.386L-1175.95 772.63ZM-1177.48 775.253C-1178.56 777.624 -1179.03 780.251 -1178.79 782.951C-1178.54 785.84 -1177.45 788.618 -1175.63 790.994L-1168.23 800.647C-1167.2 799.393 -1165.99 798.249 -1164.61 797.247L-1162.93 796.013L-1177.48 775.253ZM-1161.39 798.206L-1162.89 799.308C-1164.31 800.34 -1165.52 801.546 -1166.52 802.88L-1150.47 823.814L-1145.94 820.241L-1161.39 798.206ZM-1144.4 822.437L-1148.85 825.939L-1132.85 846.803L-1129.38 843.869L-1144.4 822.437ZM-1127.27 842.084L-1142.24 820.729L-676.462 453.37L-673.214 458.005L-1127.27 842.084ZM-1127.83 846.084L-1131.21 848.943L-1115.69 869.194L-1113.2 866.953L-1127.83 846.084ZM-1111.15 865.096L-1125.72 844.3L-671.658 460.226L-668.184 465.182L-1111.15 865.096ZM-1111.64 869.182L-1114.04 871.345L-1098.94 891.043L-1097.37 889.541L-1111.64 869.182ZM-1095.37 887.615L-1109.59 867.325L-666.622 467.412L-662.935 472.672L-1095.37 887.615ZM-1095.8 891.781L-1097.28 893.201L-1082.58 912.384L-1081.87 911.663L-1095.8 891.781ZM-1079.91 909.671L-1093.8 889.855L-661.365 474.912L-657.492 480.439L-1079.91 909.671ZM-1080.29 913.919L-1080.91 914.555L-1068.41 930.871L-1080.29 913.919ZM-1064.75 931.305L-1078.33 911.928L-655.907 482.701L-651.859 488.477L-1064.75 931.305ZM-1049.87 952.535L-1063.16 933.572L-650.275 490.738L-646.054 496.759L-1049.87 952.535ZM-1035.26 973.387L-1048.27 954.818L-644.446 499.054L-640.096 505.262L-1035.26 973.387ZM-1029.32 981.858L-1033.64 975.7L-638.471 507.581L-633.977 513.992L-1020.47 993.405L-1029.32 981.858ZM-984.655 1045.59L-988.077 1040.71L-982.598 1047.29L-979.493 1051.34L-984.655 1045.59ZM-986.802 1047.3L-980.713 1055.99L-981.696 1057.37L-995.813 1042.71L-993.605 1039.72L-986.802 1047.3ZM-1006.83 1018.73L-999.935 1028.56L-1007.72 1019.89L-1006.83 1018.73ZM-1009.3 1015.21L-1008.47 1016.38L-1009.58 1017.82L-1023.83 1001.93L-1022.12 999.801L-1009.3 1015.21ZM-1031.73 983.197L-1028.24 988.186L-1036.15 978.676L-1035.65 978.086L-1031.73 983.197ZM-979.048 1058.37L-974.514 1064.84L-979.767 1059.38L-979.048 1058.37ZM-965.472 1072.97L-971.529 1064.32L-964.737 1071.89L-965.472 1072.97ZM-962.212 1077.62L-963.791 1075.36L-962.852 1073.99L-957.92 1079.49L-950.324 1089.4L-950.548 1089.74L-962.212 1077.62ZM-964.386 1079.29L-965.606 1078.02L-968.272 1081.92L-954.335 1095.48L-953.705 1094.53L-964.386 1079.29ZM-952.01 1096.94L-952.332 1097.43L-950.243 1099.46L-952.01 1096.94ZM-939.73 1109.7L-950.39 1094.49L-950.132 1094.1L-936.899 1107.85L-938.71 1110.69L-939.73 1109.7ZM-941.891 1111.38L-940.454 1113.43L-943.293 1117.89L-957.341 1105.03L-953.853 1099.74L-941.891 1111.38ZM-938.741 1115.88L-927.351 1132.13L-927.494 1132.36L-941.228 1119.78L-938.741 1115.88ZM-925.79 1129.59L-931.38 1121.61L-924.814 1128L-925.79 1129.59ZM-917.314 1141.68L-924.068 1132.05L-922.793 1129.97L-909.7 1142.72L-911.988 1146.56L-917.314 1141.68ZM-919.458 1143.39L-914.397 1150.61L-916.839 1154.71L-930.659 1142.76L-926.87 1136.6L-919.458 1143.39ZM-912.666 1153.08L-903.342 1166.38L-914.726 1156.54L-912.666 1153.08ZM-900.076 1166.28L-910.139 1151.92L-898.135 1162.92L-900.076 1166.28ZM-894.872 1173.71L-898.335 1168.77L-896.058 1164.82L-884.153 1175.72L-883.258 1176.89L-885.845 1181.51L-894.872 1173.71ZM-897.01 1175.42L-900.453 1172.44L-904.491 1179.44L-890.909 1190.57L-888.903 1186.98L-897.01 1175.42ZM-887.423 1184.34L-888.542 1182.74L-887.186 1183.91L-887.423 1184.34ZM-887.143 1189.5L-888.738 1192.35L-880.296 1199.26L-887.143 1189.5ZM-872.467 1205.68L-885.663 1186.85L-885.053 1185.76L-859.558 1207.81L-855.172 1213.53C-858.146 1213.98 -861.191 1213.67 -863.965 1212.64L-872.467 1205.68ZM-874.561 1207.45L-874.061 1208.16C-871.888 1211.27 -868.867 1213.54 -865.471 1214.89L-834.968 1239.88L-834.359 1240.68C-832.313 1243.35 -829.652 1245.36 -826.687 1246.67L-795.322 1272.36L-794.631 1273.19C-792.759 1275.45 -790.453 1277.2 -787.909 1278.44L-755.728 1304.8L-754.931 1305.69C-753.259 1307.56 -751.295 1309.06 -749.154 1310.19L-716.025 1337.33L-715.193 1338.19C-713.766 1339.68 -712.157 1340.92 -710.426 1341.92L-676.578 1369.65L-675.505 1370.69C-674.315 1371.85 -673.016 1372.85 -671.637 1373.69L-636.828 1402.21L-635.769 1403.18C-634.893 1403.98 -633.966 1404.71 -632.999 1405.35L-601.344 1431.28L-894.665 1202.95L-890.074 1194.74L-874.561 1207.45ZM-859.524 1216.28C-857.484 1216.45 -855.41 1216.31 -853.382 1215.86L-842.148 1230.52L-859.524 1216.28ZM-848.295 1213.99L-832.617 1227.54L-845.363 1212.23L-847.216 1213.37C-847.571 1213.59 -847.931 1213.79 -848.295 1213.99ZM-842.329 1210.36L-831.968 1219.84L-841.14 1209.62L-842.329 1210.36ZM-843.007 1207.64L-844.375 1208.48L-846.7 1206.35L-856.81 1194.2L-843.007 1207.64ZM-837.388 1207.31L-806.815 1239.08L-805.09 1240.76L-329.919 920.578C-324.977 917.244 -322.335 911.872 -322.831 906.174L-322.843 906.175C-323.096 903.286 -324.192 900.509 -326.002 898.144L-556.232 597.793L-563.177 610.211L-364.237 894.074C-362.466 896.607 -361.387 899.538 -361.12 902.531C-360.533 909.176 -363.855 915.586 -369.811 919.239L-837.388 1207.31ZM-564.672 612.885L-366.603 895.512C-365.08 897.678 -364.146 900.182 -363.924 902.748L-363.91 902.758C-363.415 908.445 -366.266 913.924 -371.347 917.064L-839.282 1205.34L-869.135 1174.33L-875.003 1167.79L-564.672 612.885ZM-564.94 607.695L-558.065 595.402L-563.572 588.218L-570.351 599.974L-564.94 607.695ZM-571.872 602.611L-566.435 610.369L-876.953 1165.61L-888.863 1152.34L-571.872 602.611ZM-572.093 597.489L-565.384 585.854L-570.823 578.758L-577.435 589.866L-572.093 597.489ZM-578.982 592.466L-573.614 600.126L-890.796 1150.19L-902.91 1136.69L-578.982 592.466ZM-579.166 587.397L-572.625 576.408L-577.989 569.41L-584.431 579.884L-579.166 587.397ZM-586.006 582.444L-580.713 589.996L-904.834 1134.54L-917.157 1120.81L-586.006 582.444ZM-586.157 577.42L-579.787 567.064L-585.077 560.163L-591.347 570.016L-586.157 577.42ZM-592.95 572.535L-587.732 579.98L-919.075 1118.67L-927.078 1109.76L-931.479 1104.47L-592.95 572.535ZM-593.054 567.58L-586.856 557.842L-592.065 551.047L-598.161 560.293L-593.054 567.58ZM-599.794 562.769L-594.657 570.099L-933.331 1102.24L-945.701 1087.37L-599.794 562.769ZM-599.857 557.873L-593.834 548.739L-598.943 542.074L-604.864 550.728L-599.857 557.873ZM-606.528 553.16L-601.489 560.35L-947.536 1085.17L-960.138 1070.03L-606.528 553.16ZM-606.553 548.318L-600.707 539.772L-605.728 533.222L-611.471 541.301L-606.553 548.318ZM-613.167 543.687L-608.217 550.75L-961.961 1067.83L-974.805 1052.4L-613.167 543.687ZM-613.141 538.919L-607.473 530.946L-612.398 524.521L-617.962 532.04L-613.141 538.919ZM-619.691 534.377L-614.837 541.305L-976.614 1050.22L-980.402 1045.67L-989.361 1033.99L-619.691 534.377ZM-619.612 529.685L-614.124 522.269L-618.936 515.992L-624.319 522.969L-619.612 529.685ZM-626.084 525.256L-621.341 532.023L-991.091 1031.73L-1003.93 1014.98L-626.084 525.256ZM-625.96 520.627L-620.654 513.75L-625.347 507.628L-630.548 514.08L-625.96 520.627ZM-632.35 516.315L-627.725 522.914L-1005.66 1012.73L-1018.76 995.636L-632.35 516.315ZM-632.176 511.758L-627.053 505.403L-631.612 499.455L-636.631 505.401L-632.176 511.758ZM-638.256 503.082L-633.316 497.231L-637.73 491.474L-642.566 496.932L-638.256 503.082ZM-644.174 494.637L-639.419 489.27L-643.7 483.686L-648.352 488.676L-644.174 494.637ZM-649.937 486.415L-645.365 481.513L-649.469 476.16L-653.94 480.703L-649.937 486.415ZM-655.525 478.441L-651.137 473.983L-655.062 468.863L-659.352 472.98L-655.525 478.441ZM-660.922 470.74L-656.716 466.704L-660.447 461.837L-664.56 465.55L-660.922 470.74ZM-666.122 463.32L-662.096 459.686L-665.606 455.107L-669.544 458.438L-666.122 463.32ZM-671.1 456.217L-667.251 452.961L-669.546 449.967C-669.754 449.696 -669.97 449.432 -670.192 449.176C-671.603 449.798 -672.951 450.6 -674.198 451.585L-674.294 451.66L-671.1 456.217ZM-675.842 449.451C-674.704 448.571 -673.495 447.822 -672.237 447.201C-673.022 446.563 -673.86 446 -674.738 445.514C-675.891 445.623 -677.038 445.839 -678.161 446.162C-678.036 446.327 -677.914 446.495 -677.795 446.665L-675.842 449.451ZM-680.857 447.175C-681.892 447.659 -682.891 448.247 -683.837 448.939L-1159.16 796.58L-1143.78 818.533L-678.011 451.161L-680.146 448.113C-680.373 447.79 -680.61 447.477 -680.857 447.175ZM-680.067 444.005C-679.817 443.919 -679.567 443.837 -679.316 443.76C-679.74 443.661 -680.169 443.577 -680.6 443.509C-680.419 443.67 -680.241 443.836 -680.067 444.005ZM-847.087 1210.15L-848.754 1211.18C-849.313 1211.52 -849.886 1211.83 -850.47 1212.1L-857.433 1206.08L-872.596 1186.3L-848.797 1208.1L-847.087 1210.15ZM-1169.67 813.815C-1169.93 810.858 -1169.35 807.953 -1168.05 805.359L-1152.61 825.501L-1155.88 828.076C-1157.03 828.981 -1158.06 829.989 -1158.96 831.08L-1165.98 822.647C-1168.11 820.087 -1169.38 817.039 -1169.67 813.815ZM-1154.08 830.069L-1150.99 827.627L-1134.94 848.565L-1140.5 853.271L-1157.18 833.219C-1156.3 832.063 -1155.26 831.003 -1154.08 830.069ZM-1138.78 855.341L-1133.29 850.705L-1117.72 871.026L-1122.29 875.154L-1138.78 855.341ZM-1120.56 877.233L-1116.07 873.178L-1100.92 892.942L-1104.57 896.448L-1120.56 877.233ZM-1102.84 898.531L-1099.26 895.101L-1084.51 914.347L-1087.31 917.192L-1102.84 898.531ZM-1085.57 919.285L-1082.85 916.518L-1068.46 935.285L-1070.46 937.436L-1085.57 919.285ZM-1068.72 939.534L-1066.79 937.464L-1052.75 955.783L-1054.01 957.209L-1068.72 939.534ZM-1052.26 959.318L-1051.07 957.974L-1037.35 975.868L-1037.92 976.545L-1052.26 959.318ZM-933.226 1107.21L-931.259 1109.78L-926.444 1114.78L-928.93 1111.79L-933.15 1107.09L-933.226 1107.21ZM-922.996 1125.05L-933.383 1111.5L-934.931 1109.89L-936.691 1112.66L-923.357 1125.64L-922.996 1125.05ZM-948.17 1092.21L-948.556 1091.7L-948.596 1091.76L-948.17 1092.21ZM-920.159 1128.75L-921.203 1127.39L-921.336 1127.6L-920.159 1128.75ZM-916.471 1129.07L-908.086 1140.01L-907.267 1138.63L-916.471 1129.07ZM-909.916 1148.46L-907.789 1144.89L-896.346 1159.81L-896.751 1160.52L-909.916 1148.46ZM-895.154 1156.88L-894.868 1157.25L-894.833 1157.19L-895.154 1156.88ZM-894.674 1162.42L-894.535 1162.18L-893.586 1163.41L-894.674 1162.42ZM-893.056 1159.61L-882.029 1174L-881.773 1174.23L-880.205 1171.43L-892.8 1159.17L-893.056 1159.61ZM-867.652 1197.25L-881.427 1179.28L-883.711 1183.36L-867.652 1197.25ZM-849.338 1216.64L-832.885 1238.11L-825.148 1244.45C-822.715 1245.46 -820.059 1245.93 -817.405 1245.82L-822.053 1240.24L-849.338 1216.64ZM-815.364 1248.28C-817.037 1248.5 -818.728 1248.52 -820.394 1248.34L-804.431 1261.42L-815.364 1248.28ZM-798.873 1256.72L-810.212 1246.92C-809.605 1246.67 -809.007 1246.39 -808.42 1246.08L-798.873 1256.72ZM-769.305 1275.59L-803.13 1242.66L-328.29 922.708C-322.642 918.892 -319.482 912.478 -320.051 905.959C-320.344 902.596 -321.612 899.372 -323.724 896.611L-554.778 595.192L-548.697 584.32L-285.404 900.752C-283.27 903.312 -281.999 906.372 -281.714 909.585L-281.716 909.574C-281.217 915.201 -283.741 920.618 -288.48 924.079L-767.536 1274.45C-768.108 1274.87 -768.699 1275.25 -769.305 1275.59ZM-550.594 582.041L-556.611 592.801L-562.092 585.65L-556.156 575.356L-550.594 582.041ZM-558.031 573.103L-563.904 583.287L-569.316 576.226L-563.526 566.499L-558.031 573.103ZM-565.392 564.256L-571.118 573.876L-576.454 566.915L-570.812 557.743L-565.392 564.256ZM-572.676 555.502L-578.252 564.568L-583.513 557.706L-578.021 549.078L-572.676 555.502ZM-579.867 546.86L-585.292 555.385L-590.471 548.629L-585.132 540.532L-579.867 546.86ZM-586.968 538.326L-592.24 546.321L-597.317 539.697L-592.133 532.119L-586.968 538.326ZM-593.965 529.917L-599.081 537.396L-604.069 530.889L-599.041 523.816L-593.965 529.917ZM-600.855 521.636L-605.814 528.613L-610.705 522.232L-605.835 515.651L-600.855 521.636ZM-607.63 513.493L-612.431 519.981L-617.207 513.751L-612.496 507.645L-607.63 513.493ZM-614.285 505.496L-618.925 511.509L-623.58 505.437L-619.03 499.793L-614.285 505.496ZM-620.808 497.656L-625.286 503.211L-629.805 497.315L-625.417 492.117L-620.808 497.656ZM-627.195 489.98L-631.51 495.091L-635.882 489.388L-631.656 484.618L-627.195 489.98ZM-633.42 482.499L-637.571 487.184L-641.808 481.657L-637.746 477.3L-633.42 482.499ZM-639.486 475.207L-643.474 479.484L-647.531 474.191L-643.63 470.227L-639.486 475.207ZM-645.376 468.129L-649.2 472.014L-653.076 466.958L-649.336 463.37L-645.376 468.129ZM-651.07 461.286L-654.731 464.799L-658.411 459.999L-654.957 456.881C-654.915 456.843 -654.873 456.805 -654.83 456.767L-651.07 461.286ZM-656.89 454.986L-660.06 457.847L-663.485 453.379C-662.242 452.475 -660.911 451.737 -659.523 451.163C-659.326 451.376 -659.133 451.596 -658.945 451.821L-656.557 454.691C-656.669 454.788 -656.78 454.887 -656.89 454.986ZM-661.662 449.208C-662.863 449.775 -664.022 450.454 -665.12 451.245L-667.266 448.446C-667.327 448.367 -667.387 448.289 -667.449 448.211C-666.353 447.918 -665.237 447.722 -664.113 447.624C-663.258 448.082 -662.437 448.61 -661.662 449.208ZM-668.863 445.874C-669.056 445.932 -669.248 445.992 -669.44 446.056C-669.576 445.93 -669.713 445.806 -669.852 445.684C-669.521 445.739 -669.191 445.802 -668.863 445.874ZM-812.495 1244.94C-811.735 1244.69 -810.987 1244.39 -810.258 1244.04L-813.51 1240.41L-833.883 1221.76L-819.959 1238.49L-812.495 1244.94ZM-1158.72 835.628C-1160.18 838.396 -1160.84 841.519 -1160.56 844.668C-1160.24 848.227 -1158.77 851.556 -1156.31 854.299L-1149.8 861.56C-1149.01 860.61 -1148.12 859.718 -1147.15 858.893L-1142.58 855.03L-1158.72 835.628ZM-1140.85 857.1L-1145.28 860.843C-1146.28 861.692 -1147.18 862.623 -1147.95 863.62L-1130.75 882.79L-1124.31 876.981L-1140.85 857.1ZM-1122.58 879.06L-1128.94 884.801L-1112.05 903.625L-1106.54 898.338L-1122.58 879.06ZM-1104.81 900.422L-1110.24 905.638L-1093.88 923.871L-1089.23 919.143L-1104.81 900.422ZM-1087.49 921.236L-1092.07 925.891L-1076.2 943.582L-1072.34 939.445L-1087.49 921.236ZM-1070.59 941.543L-1074.38 945.605L-1058.96 962.792L-1055.84 959.273L-1070.59 941.543ZM-1054.09 961.381L-1057.13 964.823L-1042.14 981.537L-1039.71 978.66L-1054.09 961.381ZM-1037.93 980.791L-1040.3 983.588L-1025.68 999.872L-1023.9 997.659L-1037.93 980.791ZM-873.404 1174.26L-876.138 1170.97L-871.471 1175.82L-869.212 1178.34L-873.404 1174.26ZM-902.332 1143.76L-893.329 1154.58L-893.434 1154.76L-906.246 1142.29L-905.29 1140.69L-902.332 1143.76ZM-875.488 1176.02L-861.615 1192.69L-879.679 1176.15L-878.155 1173.42L-875.488 1176.02ZM-793.276 1270.56L-809.394 1251.19L-784.604 1272.62L-779.859 1277.91C-782.106 1277.74 -784.315 1277.18 -786.356 1276.23L-793.276 1270.56ZM-781.24 1280.42C-779.992 1280.58 -778.729 1280.63 -777.468 1280.58L-767.536 1291.64L-781.24 1280.42ZM-772.282 1279.72L-767.466 1283.88L-771.66 1279.53C-771.774 1279.56 -771.888 1279.6 -772.003 1279.63C-772.096 1279.66 -772.189 1279.69 -772.282 1279.72ZM-767.312 1277.53L-740.835 1303.3L-734.027 1309.54C-731.491 1308.91 -729.06 1307.76 -726.922 1306.08L-247.04 927.592C-242.492 924.001 -240.072 918.551 -240.562 912.992L-240.56 913.003C-240.867 909.443 -242.335 906.115 -244.807 903.361L-541.941 572.239L-547.273 581.774L-283.198 899.146C-280.736 902.111 -279.252 905.648 -278.922 909.38C-278.355 915.876 -281.284 922.158 -286.758 926.163L-765.814 1276.53C-766.302 1276.89 -766.801 1277.22 -767.312 1277.53ZM-549.17 579.495L-543.895 570.063L-549.501 563.815L-554.706 572.842L-549.17 579.495ZM-556.581 570.588L-551.434 561.661L-556.973 555.489L-562.049 564.017L-556.581 570.588ZM-563.915 561.774L-558.897 553.344L-564.361 547.255L-569.306 555.295L-563.915 561.774ZM-571.17 553.054L-566.285 545.111L-571.675 539.105L-576.486 546.665L-571.17 553.054ZM-578.331 544.448L-573.58 536.982L-578.889 531.065L-583.566 538.157L-578.331 544.448ZM-585.402 535.951L-580.786 528.951L-585.995 523.147L-590.534 529.782L-585.402 535.951ZM-592.366 527.58L-587.889 521.036L-593.009 515.33L-597.409 521.52L-592.366 527.58ZM-599.223 519.34L-594.886 513.239L-599.909 507.641L-604.168 513.397L-599.223 519.34ZM-605.963 511.239L-601.768 505.57L-606.675 500.101L-610.791 505.436L-605.963 511.239ZM-612.58 503.287L-608.529 498.036L-613.314 492.703L-617.287 497.63L-612.58 503.287ZM-619.064 495.494L-615.158 490.648L-619.805 485.469L-623.633 490.003L-619.064 495.494ZM-625.411 487.866L-621.651 483.412L-626.147 478.401L-629.829 482.556L-625.411 487.866ZM-631.593 480.437L-627.98 476.359L-632.339 471.501L-635.874 475.292L-631.593 480.437ZM-637.615 473.2L-634.15 469.484L-638.322 464.834L-641.711 468.277L-637.615 473.2ZM-643.457 466.178L-640.14 462.808L-644.079 458.419C-644.506 458.766 -644.92 459.132 -645.32 459.515L-647.367 461.479L-643.457 466.178ZM-649.1 459.396L-647.319 457.687C-646.855 457.241 -646.374 456.817 -645.877 456.415L-648.346 453.663C-648.51 453.481 -648.676 453.303 -648.845 453.129C-650.176 453.645 -651.46 454.304 -652.669 455.106L-649.1 459.396ZM-654.392 453.036C-653.333 452.323 -652.223 451.709 -651.075 451.191C-651.832 450.635 -652.627 450.142 -653.452 449.713C-654.55 449.799 -655.643 449.975 -656.717 450.241L-654.392 453.036ZM-658.794 448.088C-658.655 448.044 -658.516 448.002 -658.377 447.961C-658.615 447.912 -658.854 447.867 -659.094 447.826C-658.993 447.912 -658.893 447.999 -658.794 448.088ZM-773.732 1277.37C-774.063 1277.46 -774.396 1277.53 -774.73 1277.6L-782.454 1270.92L-792.873 1259.31L-778.055 1272.88L-773.732 1277.37ZM-1151.48 875.538C-1151.78 872.176 -1151.08 868.894 -1149.5 865.995L-1132.78 884.628L-1138.41 889.71C-1139.25 890.471 -1140.03 891.285 -1140.72 892.142L-1146.66 885.976C-1149.47 883.053 -1151.14 879.445 -1151.48 875.538ZM-1136.48 891.605L-1130.98 886.639L-1114.03 905.525L-1121.21 912.415L-1138.81 894.127C-1138.12 893.231 -1137.34 892.387 -1136.48 891.605ZM-1119.34 914.363L-1112.22 907.538L-1095.81 925.829L-1102.12 932.246L-1119.34 914.363ZM-1100.25 934.198L-1094 927.85L-1078.07 945.595L-1083.59 951.508L-1100.25 934.198ZM-1081.7 953.462L-1076.26 947.619L-1060.79 964.857L-1065.56 970.24L-1081.7 953.462ZM-1063.67 972.2L-1058.96 966.888L-1043.92 983.652L-1048 988.483L-1063.67 972.2ZM-1046.1 990.46L-1042.08 985.703L-1027.43 1002.03L-1030.86 1006.29L-1046.1 990.46ZM-1028.95 1008.28L-1025.58 1004.09L-1011.28 1020.02L-1014.11 1023.69L-1028.95 1008.28ZM-1012.2 1025.68L-1009.42 1022.09L-995.469 1037.65L-997.735 1040.71L-1012.2 1025.68ZM-813.237 1236.62L-811.326 1238.75L-807.798 1241.98L-808.807 1240.93L-813.237 1236.62ZM-768.186 1286.82L-753.651 1303.02L-747.591 1307.98C-746.013 1308.8 -744.327 1309.38 -742.593 1309.73L-747.02 1305.13L-768.186 1286.82ZM-739.712 1312.72C-740.508 1312.68 -741.302 1312.61 -742.089 1312.49L-731.883 1320.85L-739.712 1312.72ZM-698.271 1342.28L-731.745 1311.63C-729.394 1310.86 -727.151 1309.68 -725.134 1308.09L-245.253 929.597C-240.008 925.468 -237.216 919.179 -237.782 912.777C-238.138 908.674 -239.836 904.835 -242.674 901.67L-540.542 569.738L-535.863 561.372L-204.197 905.969C-201.393 908.881 -199.724 912.501 -199.383 916.407L-199.384 916.396C-198.89 921.989 -201.149 927.35 -205.587 931.103L-686.295 1337.71C-689.726 1340.61 -693.983 1342.13 -698.271 1342.28ZM-537.869 559.288L-542.496 567.561L-548.076 561.344L-543.51 553.427L-537.869 559.288ZM-545.496 551.364L-550.008 559.19L-555.52 553.048L-551.07 545.572L-545.496 551.364ZM-553.048 543.517L-557.444 550.904L-562.879 544.847L-558.547 537.804L-553.048 543.517ZM-560.526 535.748L-564.803 542.703L-570.163 536.73L-565.951 530.111L-560.526 535.748ZM-567.911 528.075L-572.068 534.607L-577.347 528.725L-573.256 522.521L-567.911 528.075ZM-575.209 520.492L-579.243 526.611L-584.419 520.844L-580.452 515.045L-575.209 520.492ZM-582.404 513.017L-586.314 518.733L-591.399 513.066L-587.558 507.662L-582.404 513.017ZM-589.492 505.652L-593.276 510.974L-598.263 505.417L-594.549 500.398L-589.492 505.652ZM-596.467 498.406L-600.122 503.345L-604.991 497.919L-601.407 493.273L-596.467 498.406ZM-603.32 491.285L-606.845 495.853L-611.591 490.565L-608.137 486.281L-603.32 491.285ZM-610.042 484.302L-613.434 488.51L-618.04 483.378L-614.718 479.443L-610.042 484.302ZM-616.627 477.46L-619.886 481.321L-624.338 476.359L-621.15 472.761L-616.627 477.46ZM-623.046 470.79L-626.171 474.317L-630.484 469.511L-627.43 466.236L-623.046 470.79ZM-629.305 464.288L-632.294 467.494L-636.418 462.899L-635.693 462.162C-634.956 461.413 -634.168 460.725 -633.335 460.101L-629.305 464.288ZM-637.759 460.389L-638.236 460.873L-641.851 456.844C-640.692 456.137 -639.464 455.546 -638.183 455.078C-638.035 455.222 -637.89 455.368 -637.746 455.517L-635.211 458.152C-636.108 458.833 -636.96 459.58 -637.759 460.389ZM-640.508 453.157C-641.601 453.633 -642.656 454.19 -643.662 454.826L-645.972 452.252C-644.929 452.015 -643.87 451.859 -642.805 451.783C-642.012 452.185 -641.244 452.643 -640.508 453.157ZM-647.912 450.032C-647.946 450.042 -647.981 450.052 -648.016 450.062C-648.058 450.074 -648.099 450.087 -648.141 450.099L-648.186 450.061L-648.231 450.022C-648.256 450.001 -648.281 449.98 -648.307 449.958C-648.221 449.973 -648.135 449.989 -648.05 450.005C-648.004 450.014 -647.958 450.023 -647.912 450.032ZM-1140.34 896.469C-1142 899.494 -1142.75 902.924 -1142.44 906.412C-1142.08 910.619 -1140.15 914.605 -1137.01 917.665L-1131.74 922.799C-1131.11 922.008 -1130.42 921.252 -1129.68 920.539L-1123.18 914.303L-1140.34 896.469ZM-1121.3 916.25L-1127.68 922.367C-1128.45 923.104 -1129.14 923.89 -1129.76 924.719L-1111.86 942.142L-1104.04 934.19L-1121.3 916.25ZM-1102.16 936.142L-1109.92 944.032L-1092.46 961.029L-1085.45 953.505L-1102.16 936.142ZM-1083.57 955.459L-1090.52 962.918L-1073.63 979.357L-1067.37 972.287L-1083.57 955.459ZM-1065.48 974.246L-1071.69 981.249L-1055.33 997.17L-1049.77 990.576L-1065.48 974.246ZM-1047.86 992.554L-1053.37 999.079L-1037.5 1014.53L-1032.58 1008.43L-1047.86 992.554ZM-1030.67 1010.42L-1035.53 1016.44L-1020.11 1031.46L-1015.8 1025.87L-1030.67 1010.42ZM-1013.88 1027.86L-1018.13 1033.38L-1003.12 1047.99L-999.379 1042.93L-1013.88 1027.86ZM-997.456 1044.93L-1001.15 1049.91L-986.518 1064.16L-983.302 1059.63L-997.456 1044.93ZM-981.373 1061.64L-984.535 1066.09L-970.267 1079.97L-967.548 1076L-981.373 1061.64ZM-744.966 1303.34L-746.241 1302.02L-743.101 1304.89L-742.531 1305.45L-744.966 1303.34ZM-714.047 1335.47L-724.521 1324.58L-709.745 1337.36L-705.913 1341.09C-706.902 1340.73 -707.864 1340.29 -708.787 1339.77L-714.047 1335.47ZM-702.894 1344.6C-702.662 1344.64 -702.43 1344.68 -702.196 1344.71L-699.178 1347.65L-702.894 1344.6ZM-695.65 1344.68L-670.106 1368.08L-663.047 1374.18C-656.981 1375.27 -650.457 1373.68 -645.678 1369.36L-164.145 934.627C-159.87 930.766 -157.704 925.369 -158.192 919.821L-158.18 919.82C-158.549 915.613 -160.48 911.616 -163.601 908.566L-530.378 551.563L-534.481 558.899L-202.123 904.215C-198.899 907.568 -196.986 911.707 -196.592 916.191C-196.024 922.605 -198.623 928.754 -203.707 933.063L-684.427 1339.67C-687.689 1342.43 -691.603 1344.09 -695.65 1344.68ZM-536.486 556.816L-532.431 549.565L-538.101 544.046L-542.101 550.982L-536.486 556.816ZM-544.086 548.919L-540.135 542.066L-545.738 536.613L-549.633 543.157L-544.086 548.919ZM-551.61 541.102L-547.764 534.64L-553.292 529.26L-557.08 535.419L-551.61 541.102ZM-559.059 533.363L-555.32 527.286L-560.774 521.977L-564.453 527.758L-559.059 533.363ZM-566.413 525.722L-562.785 520.02L-568.158 514.79L-571.727 520.202L-566.413 525.722ZM-573.679 518.173L-570.162 512.839L-575.433 507.709L-578.889 512.76L-573.679 518.173ZM-580.84 510.732L-577.437 505.758L-582.619 500.715L-585.959 505.414L-580.84 510.732ZM-587.894 503.404L-584.607 498.78L-589.691 493.831L-592.914 498.188L-587.894 503.404ZM-594.832 496.196L-591.662 491.912L-596.628 487.079L-599.733 491.104L-594.832 496.196ZM-601.646 489.116L-598.596 485.163L-603.437 480.451L-606.422 484.153L-601.646 489.116ZM-608.327 482.175L-605.398 478.542L-610.097 473.969L-612.96 477.36L-608.327 482.175ZM-614.869 475.377L-612.064 472.054L-616.606 467.633L-619.346 470.725L-614.869 475.377ZM-621.243 468.755L-618.616 465.79L-618.562 465.729L-622.604 461.795C-623.654 462.519 -624.647 463.341 -625.569 464.26L-621.243 468.755ZM-627.437 462.32C-626.53 461.432 -625.564 460.626 -624.548 459.903L-627.159 457.361C-627.277 457.247 -627.395 457.134 -627.515 457.024C-628.734 457.443 -629.907 457.969 -631.022 458.595L-627.437 462.32ZM-632.926 456.616C-631.967 456.049 -630.968 455.548 -629.937 455.117C-630.661 454.635 -631.412 454.204 -632.186 453.824C-633.214 453.891 -634.227 454.028 -635.219 454.234L-632.926 456.616ZM-637.492 452.08L-637.487 452.079L-637.496 452.077L-637.492 452.08ZM-1133.41 937.275C-1133.72 933.699 -1132.96 930.165 -1131.26 927.043L-1113.76 944.073L-1120.94 951.367C-1121.61 952.045 -1122.23 952.759 -1122.8 953.503L-1127.36 949.329C-1130.86 946.115 -1133 941.84 -1133.41 937.275ZM-1118.89 953.143L-1111.82 945.963L-1094.31 963.011L-1102.65 971.955L-1120.77 955.36C-1120.2 954.583 -1119.58 953.842 -1118.89 953.143ZM-1100.65 973.784L-1092.37 964.9L-1075.43 981.387L-1083.01 989.94L-1100.65 973.784ZM-1081.01 991.771L-1073.49 983.28L-1057.09 999.247L-1063.96 1007.39L-1081.01 991.771ZM-1061.94 1009.23L-1055.12 1001.16L-1039.21 1016.65L-1045.43 1024.36L-1061.94 1009.23ZM-1043.41 1026.21L-1037.24 1018.56L-1021.77 1033.62L-1027.38 1040.89L-1043.41 1026.21ZM-1025.36 1042.74L-1019.8 1035.54L-1004.75 1050.19L-1009.79 1057L-1025.36 1042.74ZM-1007.76 1058.85L-1002.78 1052.11L-988.108 1066.39L-992.611 1072.73L-1007.76 1058.85ZM-990.58 1074.59L-986.125 1068.32L-971.821 1082.25L-975.826 1088.1L-990.58 1074.59ZM-973.783 1089.97L-969.827 1084.19L-955.856 1097.79L-959.392 1103.15L-973.783 1089.97ZM-674.806 1367.58L-674.556 1367.82L-673.958 1368.31L-674.806 1367.58ZM-626.85 1405.48L-659.657 1377.11C-653.941 1377.19 -648.191 1375.24 -643.76 1371.24L-162.226 936.512C-157.342 932.099 -154.856 925.94 -155.414 919.595C-155.826 914.798 -158.034 910.226 -161.609 906.752L-529.011 549.12L-525.409 542.678L-123.029 911.166C-119.528 914.369 -117.383 918.656 -116.978 923.221L-116.966 923.219C-116.483 928.732 -118.569 934.166 -122.694 938.127L-605.053 1400.98C-610.883 1406.58 -619.51 1408.09 -626.85 1405.48ZM-527.506 540.757L-531.065 547.121L-536.707 541.628L-533.199 535.544L-527.506 540.757ZM-535.276 533.641L-538.741 539.649L-544.315 534.223L-540.902 528.489L-535.276 533.641ZM-542.974 526.592L-546.342 532.25L-551.839 526.898L-548.524 521.509L-542.974 526.592ZM-550.599 519.609L-553.868 524.924L-559.29 519.646L-556.075 514.594L-550.599 519.609ZM-558.132 512.71L-561.301 517.689L-566.642 512.49L-563.529 507.768L-558.132 512.71ZM-565.58 505.889L-568.646 510.539L-573.882 505.442L-570.872 501.043L-565.58 505.889ZM-572.926 499.163L-575.886 503.491L-581.032 498.482L-578.128 494.398L-572.926 499.163ZM-580.166 492.532L-583.02 496.547L-588.066 491.635L-585.271 487.858L-580.166 492.532ZM-587.292 486.006L-590.037 489.716L-594.963 484.922L-592.277 481.441L-587.292 486.006ZM-594.297 479.591L-596.932 483.005L-601.731 478.334L-599.157 475.141L-594.297 479.591ZM-601.17 473.297L-603.692 476.425L-608.346 471.894L-606.838 470.108C-606.519 469.73 -606.19 469.364 -605.85 469.011L-601.17 473.297ZM-609.046 468.479L-610.313 469.98L-614.709 465.7C-613.816 464.895 -612.861 464.165 -611.851 463.516L-607.86 467.171C-608.268 467.591 -608.664 468.027 -609.046 468.479ZM-613.886 461.652C-614.856 462.306 -615.779 463.026 -616.651 463.811L-620.199 460.357C-619.114 459.799 -617.987 459.333 -616.832 458.959C-616.741 459.04 -616.65 459.121 -616.56 459.203L-613.886 461.652ZM-619.338 457.069C-620.314 457.458 -621.267 457.908 -622.19 458.419L-624.457 456.212C-623.498 456.03 -622.519 455.908 -621.526 455.851C-620.773 456.212 -620.042 456.619 -619.338 457.069ZM-1122.23 957.694C-1123.94 960.901 -1124.71 964.522 -1124.39 968.152C-1123.96 973.087 -1121.58 977.65 -1117.7 981.017L-1113.93 984.276C-1113.39 983.553 -1112.81 982.854 -1112.19 982.181L-1104.5 973.936L-1122.23 957.694ZM-1102.5 975.765L-1110.09 983.905C-1110.73 984.596 -1111.32 985.319 -1111.85 986.07L-1093.58 1001.87L-1084.81 991.968L-1102.5 975.765ZM-1082.81 993.798L-1091.53 1003.64L-1073.77 1019.01L-1065.71 1009.46L-1082.81 993.798ZM-1063.69 1011.3L-1071.7 1020.79L-1054.52 1035.65L-1047.13 1026.47L-1063.69 1011.3ZM-1045.11 1028.32L-1052.46 1037.44L-1035.82 1051.82L-1029.04 1043.04L-1045.11 1028.32ZM-1027.01 1044.89L-1033.75 1053.62L-1017.61 1067.57L-1011.41 1059.19L-1027.01 1044.89ZM-1009.38 1061.04L-1015.54 1069.36L-999.857 1082.92L-994.192 1074.95L-1009.38 1061.04ZM-992.16 1076.81L-997.78 1084.72L-982.532 1097.9L-977.369 1090.36L-992.16 1076.81ZM-975.327 1092.23L-980.445 1099.71L-965.591 1112.55L-960.9 1105.44L-975.327 1092.23ZM-958.849 1107.32L-963.497 1114.36L-949.017 1126.89L-944.768 1120.21L-958.849 1107.32ZM-942.703 1122.1L-946.908 1128.71L-932.769 1140.94L-928.938 1134.71L-942.703 1122.1ZM-622.6 1409.16C-615.628 1410 -608.329 1407.88 -603.052 1402.82L-120.683 939.954C-115.997 935.46 -113.625 929.279 -114.175 923.003C-114.627 917.814 -117.074 912.944 -121.057 909.296L-524.05 540.248L-520.892 534.602L-82.4313 913.775C-78.5489 917.131 -76.167 921.705 -75.7368 926.64L-75.7352 926.652C-75.2427 932.14 -77.25 937.612 -81.2386 941.661L-564.424 1432.63C-571.792 1440.11 -583.961 1441.03 -592.478 1435.06L-595.628 1432.48L-622.6 1409.16ZM-526.147 538.328L-523.03 532.753L-528.741 527.814L-531.812 533.14L-526.147 538.328ZM-533.89 531.237L-530.86 525.982L-536.504 521.1L-539.487 526.111L-533.89 531.237ZM-541.559 524.214L-538.617 519.273L-544.187 514.457L-547.079 519.159L-541.559 524.214ZM-549.153 517.259L-546.304 512.626L-551.799 507.874L-554.598 512.273L-549.153 517.259ZM-556.655 510.389L-553.899 506.058L-559.313 501.376L-562.018 505.478L-556.655 510.389ZM-564.07 503.599L-561.409 499.563L-566.719 494.972L-569.327 498.785L-564.07 503.599ZM-571.381 496.904L-568.817 493.157L-574.037 488.643L-576.547 492.173L-571.381 496.904ZM-578.584 490.308L-576.12 486.841L-581.242 482.413L-583.65 485.668L-578.584 490.308ZM-585.672 483.817L-583.31 480.624L-588.31 476.3L-590.617 479.289L-585.672 483.817ZM-592.637 477.439L-590.378 474.512L-595.087 470.439C-595.849 471.156 -596.567 471.929 -597.235 472.758L-597.453 473.028L-592.637 477.439ZM-599.466 471.184L-599.462 471.178C-598.738 470.281 -597.963 469.442 -597.142 468.662L-601.096 465.243C-602.055 465.815 -602.976 466.458 -603.85 467.17L-599.466 471.184ZM-605.863 465.327C-605.02 464.628 -604.136 463.988 -603.219 463.407L-605.963 461.034C-605.986 461.014 -606.009 460.994 -606.033 460.974C-606.07 460.942 -606.107 460.91 -606.144 460.879C-607.251 461.216 -608.325 461.633 -609.358 462.126L-605.863 465.327ZM-611.456 460.204C-610.585 459.749 -609.684 459.343 -608.76 458.988C-609.433 458.576 -610.129 458.202 -610.843 457.867C-611.79 457.914 -612.734 458.018 -613.667 458.179L-611.456 460.204ZM-1115.39 999.019C-1115.72 995.29 -1114.98 991.65 -1113.28 988.392L-1095.36 1003.88L-1103.45 1013.01C-1104.04 1013.68 -1104.59 1014.37 -1105.1 1015.09L-1108.03 1012.69C-1112.3 1009.18 -1114.92 1004.32 -1115.39 999.019ZM-1101.3 1014.67L-1093.32 1005.66L-1075.5 1021.06L-1084.62 1031.87L-1102.98 1016.83C-1102.47 1016.08 -1101.91 1015.36 -1101.3 1014.67ZM-1082.51 1033.6L-1073.44 1022.85L-1056.21 1037.74L-1064.66 1048.22L-1082.51 1033.6ZM-1062.55 1049.95L-1054.14 1039.53L-1037.46 1053.95L-1045.29 1064.09L-1062.55 1049.95ZM-1043.17 1065.83L-1035.39 1055.75L-1019.21 1069.74L-1026.45 1079.52L-1043.17 1065.83ZM-1024.34 1081.26L-1017.14 1071.53L-1001.42 1085.12L-1008.12 1094.54L-1024.34 1081.26ZM-1006 1096.28L-999.346 1086.92L-984.061 1100.14L-990.25 1109.18L-1006 1096.28ZM-988.121 1110.93L-981.974 1101.94L-967.085 1114.82L-972.798 1123.48L-988.121 1110.93ZM-970.662 1125.23L-964.991 1116.63L-950.477 1129.18L-955.743 1137.45L-970.662 1125.23ZM-953.593 1139.21L-948.368 1131L-934.197 1143.26L-939.042 1151.14L-953.593 1139.21ZM-936.893 1152.9L-932.087 1145.08L-918.237 1157.06L-922.686 1164.54L-936.893 1152.9ZM-920.535 1166.3L-916.124 1158.89L-902.571 1170.61L-906.647 1177.68L-920.535 1166.3ZM-554.488 1466.19L-585.199 1441.03C-577.148 1442.73 -568.362 1440.48 -562.371 1434.39L-79.1863 943.425C-74.6744 938.834 -72.3934 932.63 -72.947 926.413C-73.4396 920.831 -76.1393 915.652 -80.5425 911.845L-519.549 532.2L-516.784 527.255L-41.8367 916.361C-37.5487 919.867 -34.943 924.718 -34.4738 930.034L-34.4617 930.033C-33.9614 935.579 -35.8573 940.955 -39.7644 945.146L-523.774 1464.24C-531.688 1472.72 -545.45 1473.59 -554.488 1466.19ZM-518.958 525.474L-521.686 530.351L-527.37 525.436L-524.686 520.781L-518.958 525.474ZM-526.842 519.015L-529.489 523.604L-535.104 518.748L-532.503 514.377L-526.842 519.015ZM-534.654 512.615L-537.217 516.92L-542.756 512.131L-540.239 508.039L-534.654 512.615ZM-542.395 506.273L-544.873 510.3L-550.336 505.575L-547.906 501.758L-542.395 506.273ZM-550.046 500.005L-552.436 503.759L-557.817 499.106L-555.476 495.556L-550.046 500.005ZM-557.613 493.806L-559.912 497.294L-565.187 492.733L-562.937 489.444L-557.613 493.806ZM-565.077 487.69L-567.285 490.918L-572.468 486.436L-570.311 483.402L-565.077 487.69ZM-572.437 481.661L-574.551 484.634L-579.634 480.239L-578.019 478.057C-577.87 477.856 -577.718 477.657 -577.563 477.461L-572.437 481.661ZM-580.307 476.566L-581.702 478.451L-586.621 474.196C-585.905 473.386 -585.138 472.627 -584.324 471.923L-579.669 475.736C-579.886 476.008 -580.099 476.285 -580.307 476.566ZM-586.441 470.188C-587.228 470.885 -587.975 471.629 -588.678 472.418L-592.993 468.686C-592.149 468.059 -591.266 467.491 -590.352 466.984L-586.441 470.188ZM-592.555 465.179C-593.423 465.699 -594.262 466.27 -595.069 466.891L-598.513 463.912C-597.519 463.475 -596.496 463.105 -595.453 462.805C-595.428 462.826 -595.403 462.846 -595.378 462.866L-592.555 465.179ZM-598.174 460.921C-599.039 461.239 -599.888 461.601 -600.716 462.007L-602.884 460.133C-602.334 460.047 -601.777 459.979 -601.216 459.931C-600.882 459.902 -600.547 459.88 -600.214 459.865C-599.52 460.18 -598.839 460.532 -598.174 460.921ZM-1104.37 1019.18C-1106.03 1022.48 -1106.74 1026.15 -1106.42 1029.89C-1105.91 1035.57 -1103.06 1040.72 -1098.37 1044.37L-1096.33 1045.96C-1095.83 1045.22 -1095.29 1044.51 -1094.71 1043.81L-1086.36 1033.93L-1104.37 1019.18ZM-1084.25 1035.66L-1092.51 1045.44C-1093.11 1046.15 -1093.66 1046.89 -1094.15 1047.65L-1075.75 1061.98L-1066.35 1050.32L-1084.25 1035.66ZM-1064.24 1052.05L-1073.59 1063.66L-1055.7 1077.59L-1046.93 1066.23L-1064.24 1052.05ZM-1044.82 1067.96L-1053.54 1079.27L-1036.23 1092.74L-1028.06 1081.69L-1044.82 1067.96ZM-1025.94 1083.43L-1034.08 1094.42L-1017.31 1107.47L-1009.69 1096.75L-1025.94 1083.43ZM-1007.57 1098.48L-1015.15 1109.15L-998.889 1121.81L-991.777 1111.42L-1007.57 1098.48ZM-989.649 1113.16L-996.721 1123.5L-980.92 1135.8L-974.289 1125.74L-989.649 1113.16ZM-972.154 1127.49L-978.746 1137.49L-963.38 1149.45L-957.2 1139.74L-972.154 1127.49ZM-955.051 1141.51L-961.193 1151.16L-946.223 1162.81L-940.467 1153.45L-955.051 1141.51ZM-938.318 1155.21L-944.037 1164.51L-929.436 1175.88L-924.08 1166.88L-938.318 1155.21ZM-921.929 1168.64L-927.249 1177.58L-912.991 1188.68L-908.011 1180.04L-921.929 1168.64ZM-905.855 1181.81L-910.8 1190.38L-896.87 1201.23L-892.245 1192.96L-905.855 1181.81ZM-548.366 1472.52L-514.832 1498.63C-505.294 1506.05 -491.085 1504.81 -483.148 1495.87L1.68684 948.646C5.47163 944.376 7.28946 938.974 6.80302 933.438L6.79234 933.451C6.28408 927.754 3.44082 922.616 -1.25255 918.96L-513.037 520.556L-515.447 524.866L-39.9906 914.389C-35.1698 918.345 -32.2066 923.819 -31.6825 929.818C-31.1349 936.082 -33.2618 942.14 -37.668 946.87L-521.676 1465.98C-528.482 1473.27 -539.159 1475.57 -548.366 1472.52ZM-517.622 523.084L-515.247 518.836L-520.988 514.367L-523.322 518.415L-517.622 523.084ZM-525.478 516.648L-523.179 512.661L-528.853 508.245L-531.109 512.035L-525.478 516.648ZM-533.26 510.273L-531.04 506.542L-536.638 502.184L-538.814 505.722L-533.26 510.273ZM-540.97 503.956L-538.831 500.477L-544.355 496.177L-546.449 499.467L-540.97 503.956ZM-548.589 497.714L-546.532 494.482L-551.974 490.245L-553.984 493.294L-548.589 497.714ZM-556.121 491.543L-554.149 488.553L-559.485 484.398L-561.409 487.211L-556.121 491.543ZM-563.55 485.458L-561.664 482.702L-566.808 478.698C-567.372 479.341 -567.904 480.015 -568.403 480.717L-568.746 481.2L-563.55 485.458ZM-570.872 479.459L-570.736 479.267C-570.18 478.487 -569.587 477.738 -568.96 477.023L-573.564 473.439C-574.341 474.06 -575.081 474.727 -575.78 475.438L-570.872 479.459ZM-577.881 473.716C-577.203 473.021 -576.488 472.363 -575.741 471.744L-579.616 468.727C-580.486 469.181 -581.326 469.685 -582.131 470.235L-577.881 473.716ZM-584.287 468.469C-583.523 467.92 -582.73 467.411 -581.91 466.942L-584.765 464.719C-585.751 464.987 -586.721 465.313 -587.668 465.698L-584.287 468.469ZM-589.972 463.811C-589.191 463.449 -588.394 463.125 -587.584 462.838C-588.218 462.48 -588.869 462.153 -589.533 461.857C-590.385 461.89 -591.235 461.966 -592.078 462.085L-589.972 463.811ZM-1097.45 1060.76C-1097.78 1057.04 -1097.09 1053.36 -1095.49 1050.03L-1077.44 1064.08L-1085.96 1074.64C-1086.54 1075.37 -1087.08 1076.12 -1087.58 1076.89L-1088.7 1076.05C-1093.73 1072.32 -1096.92 1066.75 -1097.45 1060.76ZM-1083.72 1076.22L-1075.29 1065.76L-1057.35 1079.72L-1066.96 1092.18L-1085.36 1078.53C-1084.87 1077.74 -1084.32 1076.96 -1083.72 1076.22ZM-1064.76 1093.81L-1055.19 1081.4L-1037.84 1094.91L-1046.85 1107.09L-1064.76 1093.81ZM-1044.66 1108.72L-1035.68 1096.59L-1018.87 1109.67L-1027.33 1121.57L-1044.66 1108.72ZM-1025.14 1123.2L-1016.72 1111.35L-1000.41 1124.04L-1008.35 1135.65L-1025.14 1123.2ZM-1006.15 1137.28L-998.247 1125.73L-982.409 1138.06L-989.861 1149.36L-1006.15 1137.28ZM-987.653 1151L-980.236 1139.75L-964.835 1151.74L-971.831 1162.73L-987.653 1151ZM-969.609 1164.38L-962.648 1153.44L-947.645 1165.12L-954.213 1175.8L-969.609 1164.38ZM-951.993 1177.45L-945.46 1166.82L-930.827 1178.21L-936.992 1188.57L-951.993 1177.45ZM-934.772 1190.22L-928.64 1179.92L-914.352 1191.04L-920.137 1201.07L-934.772 1190.22ZM-917.914 1202.72L-912.161 1192.75L-898.202 1203.61L-903.629 1213.32L-917.914 1202.72ZM-901.392 1214.97L-895.997 1205.33L-525.28 1493.92L-901.392 1214.97ZM-475.175 1531.08L-513.066 1502.98C-502.606 1508.62 -488.972 1506.55 -481.006 1497.56L3.82921 950.341C8.08836 945.535 10.1266 939.465 9.58372 933.235C9.01753 926.832 5.81364 921.048 0.538416 916.948L-511.707 518.177L-509.606 514.421L39.3417 921.546C44.3686 925.279 47.5551 930.843 48.0792 936.842L48.0915 936.84C48.5764 942.365 46.8258 947.805 43.1514 952.156L-442.51 1527.49C-450.467 1536.93 -465.123 1538.54 -475.175 1531.08ZM-511.848 512.759L-513.916 516.457L-519.628 512.01L-517.6 508.492L-511.848 512.759ZM-519.824 506.843L-521.82 510.304L-527.463 505.911L-525.509 502.627L-519.824 506.843ZM-527.729 500.98L-529.65 504.208L-535.217 499.875L-533.338 496.82L-527.729 500.98ZM-535.565 495.168L-537.41 498.167L-542.901 493.893L-541.1 491.063L-535.565 495.168ZM-543.312 489.423L-545.078 492.198L-550.486 487.988L-549.186 486.016C-549.045 485.803 -548.902 485.593 -548.757 485.385L-543.312 489.423ZM-551.571 484.642L-552.661 486.295L-557.928 482.194C-557.335 481.423 -556.701 480.688 -556.029 479.991L-550.96 483.751C-551.168 484.044 -551.372 484.341 -551.571 484.642ZM-558.237 478.354C-558.89 479.04 -559.51 479.758 -560.095 480.508L-564.915 476.755C-564.235 476.128 -563.521 475.539 -562.776 474.988L-558.237 478.354ZM-565.022 473.322C-565.734 473.874 -566.419 474.458 -567.075 475.074L-571.269 471.809C-570.496 471.321 -569.695 470.875 -568.868 470.47L-565.022 473.322ZM-571.245 468.707C-572.02 469.128 -572.772 469.583 -573.5 470.072L-576.828 467.481C-575.932 467.143 -575.01 466.853 -574.068 466.613L-571.245 468.707ZM-577.002 464.734C-577.765 464.993 -578.512 465.282 -579.242 465.602L-581.263 464.029C-580.461 463.928 -579.654 463.864 -578.844 463.839C-578.22 464.109 -577.606 464.407 -577.002 464.734ZM-1086.65 1080.94C-1088.17 1084.29 -1088.82 1087.95 -1088.5 1091.63C-1087.93 1098.02 -1084.5 1103.88 -1079.04 1107.74L-1078.86 1107.87C-1078.36 1107.04 -1077.8 1106.24 -1077.2 1105.46L-1068.61 1094.32L-1086.65 1080.94ZM-1066.41 1095.95L-1074.93 1106.99C-1075.55 1107.79 -1076.1 1108.62 -1076.6 1109.47L-1058.24 1122.48L-1048.46 1109.26L-1066.41 1095.95ZM-1046.26 1110.89L-1056.01 1124.06L-1038.11 1136.73L-1028.9 1123.77L-1046.26 1110.89ZM-1026.7 1125.4L-1035.88 1138.31L-1018.57 1150.58L-1009.88 1137.87L-1026.7 1125.4ZM-1007.67 1139.51L-1016.33 1152.16L-999.545 1164.05L-991.348 1151.62L-1007.67 1139.51ZM-989.139 1153.25L-997.304 1165.64L-981.019 1177.17L-973.282 1165.01L-989.139 1153.25ZM-971.06 1166.66L-978.764 1178.77L-962.934 1189.98L-955.63 1178.1L-971.06 1166.66ZM-953.411 1179.75L-960.683 1191.57L-945.274 1202.49L-938.378 1190.9L-953.411 1179.75ZM-936.157 1192.55L-943.023 1204.08L-928.005 1214.72L-921.492 1203.42L-936.157 1192.55ZM-919.269 1205.07L-925.751 1216.31L-911.106 1226.69L-904.955 1215.69L-919.269 1205.07ZM-902.718 1217.35L-908.839 1228.29L-435.52 1563.53C-424.956 1571 -409.865 1569.03 -401.882 1559.13L84.6041 955.667C88.1699 951.248 89.8653 945.767 89.3803 940.243L89.3697 940.255C88.8066 933.876 85.3671 928.003 79.9257 924.144L-506.473 508.82L-508.29 512.068L41.0791 919.505C46.7122 923.68 50.2763 929.923 50.8722 936.637C51.4226 942.831 49.4502 948.929 45.3364 953.799L-440.325 1529.13C-449.237 1539.69 -465.657 1541.49 -476.911 1533.14L-902.718 1217.35ZM-510.532 510.406L-508.745 507.211L-514.508 503.129L-516.255 506.161L-510.532 510.406ZM-518.479 504.511L-516.762 501.533L-522.457 497.499L-524.134 500.317L-518.479 504.511ZM-526.355 498.671L-524.708 495.905L-530.327 491.925L-531.932 494.534L-526.355 498.671ZM-534.159 492.882L-532.586 490.325L-538.021 486.475C-538.576 487.181 -539.097 487.916 -539.582 488.678L-539.661 488.802L-534.159 492.882ZM-541.872 487.162C-541.366 486.379 -540.826 485.623 -540.253 484.895L-545.265 481.345C-545.91 481.955 -546.526 482.599 -547.112 483.276L-541.872 487.162ZM-549.307 481.648C-548.736 480.986 -548.139 480.354 -547.517 479.75L-552 476.574C-552.708 477.062 -553.39 477.583 -554.044 478.135L-549.307 481.648ZM-556.275 476.48C-555.649 475.935 -554.999 475.417 -554.327 474.927L-558.12 472.24C-558.901 472.599 -559.661 472.994 -560.397 473.423L-556.275 476.48ZM-562.711 471.707C-562.022 471.274 -561.313 470.869 -560.586 470.493L-563.393 468.505C-564.28 468.718 -565.148 468.974 -565.996 469.271L-562.711 471.707ZM-568.514 467.403C-567.833 467.121 -567.139 466.864 -566.433 466.632C-567.017 466.328 -567.611 466.05 -568.212 465.796C-568.962 465.817 -569.714 465.87 -570.467 465.955L-568.514 467.403ZM-1079.56 1122.52C-1079.88 1118.87 -1079.27 1115.24 -1077.83 1111.9L-1059.84 1124.64L-1068.44 1136.27C-1069.07 1137.12 -1069.64 1137.99 -1070.15 1138.9C-1075.58 1134.91 -1078.98 1128.99 -1079.56 1122.52ZM-1066.15 1137.77L-1057.61 1126.22L-1039.67 1138.92L-1049.58 1152.87L-1067.88 1140.46C-1067.37 1139.53 -1066.79 1138.64 -1066.15 1137.77ZM-1047.32 1154.4L-1037.44 1140.5L-1020.08 1152.79L-1029.46 1166.5L-1047.32 1154.4ZM-1027.19 1168.04L-1017.85 1154.38L-1001.02 1166.29L-1009.9 1179.76L-1027.19 1168.04ZM-1007.63 1181.3L-998.783 1167.88L-982.463 1179.44L-990.875 1192.66L-1007.63 1181.3ZM-988.59 1194.21L-980.208 1181.03L-964.344 1192.27L-972.318 1205.23L-988.59 1194.21ZM-970.038 1206.78L-962.093 1193.86L-946.652 1204.8L-954.214 1217.51L-970.038 1206.78ZM-951.934 1219.05L-944.401 1206.4L-929.353 1217.05L-936.527 1229.49L-951.934 1219.05ZM-934.244 1231.04L-927.098 1218.65L-912.424 1229.04L-919.233 1241.22L-934.244 1231.04ZM-916.938 1242.77L-910.157 1230.65L-437.187 1565.63C-425.398 1573.99 -408.549 1571.78 -399.642 1560.72L86.8441 957.257C90.8247 952.321 92.7191 946.197 92.1732 940.038C91.546 932.907 87.6924 926.36 81.6187 922.051L-505.158 506.467L-503.602 503.685L120.521 926.73C126.389 930.714 130.092 936.882 130.695 943.653C131.18 949.178 129.538 954.687 126.069 959.177L-361.242 1590.77C-369.246 1601.14 -384.785 1603.49 -395.85 1595.98L-916.938 1242.77ZM-505.901 502.126L-507.43 504.859L-513.163 500.798L-511.673 498.214L-505.901 502.126ZM-513.956 496.666L-515.417 499.201L-521.082 495.189L-520.375 494.001C-520.136 493.6 -519.887 493.206 -519.631 492.82L-513.956 496.666ZM-522.81 492.715L-523.333 493.595L-528.863 489.679C-528.359 488.976 -527.824 488.299 -527.26 487.648L-521.902 491.28C-522.216 491.748 -522.519 492.227 -522.81 492.715ZM-529.538 486.104C-530.087 486.743 -530.61 487.405 -531.106 488.09L-536.258 484.441C-535.694 483.851 -535.103 483.286 -534.489 482.748L-529.538 486.104ZM-536.796 481.185C-537.385 481.719 -537.952 482.276 -538.497 482.855L-543.164 479.55C-542.536 479.066 -541.889 478.611 -541.223 478.184L-536.796 481.185ZM-543.618 476.561C-544.246 476.993 -544.859 477.448 -545.454 477.928L-549.515 475.052C-548.821 474.677 -548.107 474.33 -547.377 474.013L-543.618 476.561ZM-549.944 472.272C-550.62 472.607 -551.28 472.964 -551.924 473.345L-555.133 471.073C-554.339 470.815 -553.528 470.591 -552.702 470.403L-549.944 472.272ZM-555.836 468.533C-556.487 468.739 -557.128 468.966 -557.759 469.213L-559.651 467.873C-558.952 467.803 -558.254 467.761 -557.557 467.745C-556.974 467.986 -556.4 468.249 -555.836 468.533ZM-1069.04 1142.91C-1070.39 1146.23 -1070.94 1149.82 -1070.63 1153.39C-1070.06 1159.89 -1066.74 1165.8 -1061.45 1169.9C-1060.92 1168.94 -1060.34 1168 -1059.69 1167.08L-1051.13 1155.05L-1069.04 1142.91ZM-1048.87 1156.58L-1057.37 1168.54C-1058.04 1169.49 -1058.65 1170.48 -1059.17 1171.49L-1040.97 1183.32L-1030.97 1168.71L-1048.87 1156.58ZM-1028.7 1170.25L-1038.67 1184.81L-1020.87 1196.39L-1011.38 1181.99L-1028.7 1170.25ZM-1009.1 1183.53L-1018.57 1197.88L-1001.33 1209.09L-992.313 1194.92L-1009.1 1183.53ZM-990.028 1196.46L-999.017 1210.59L-982.297 1221.46L-973.721 1207.52L-990.028 1196.46ZM-971.441 1209.06L-979.989 1222.96L-963.745 1233.52L-955.586 1219.81L-971.441 1209.06ZM-953.305 1221.36L-961.437 1235.02L-945.635 1245.29L-937.868 1231.82L-953.305 1221.36ZM-935.585 1233.37L-943.325 1246.79L-927.942 1256.79L-920.544 1243.56L-935.585 1233.37ZM-918.249 1245.12L-925.621 1258.3L-356.194 1628.43C-350.583 1632.07 -343.798 1633.46 -337.068 1632.32C-330.351 1631.18 -324.502 1627.65 -320.603 1622.39L167.534 962.687C170.907 958.127 172.506 952.576 172.01 947.064L172.021 947.051C171.387 939.874 167.408 933.412 161.115 929.316L-500.961 498.967C-501.027 499.082 -501.092 499.197 -501.156 499.312L-502.29 501.34L122.16 924.608C128.697 929.037 132.816 935.891 133.487 943.437C134.029 949.574 132.199 955.713 128.34 960.716L-358.973 1592.29C-367.888 1603.84 -385.167 1606.45 -397.49 1598.1L-918.249 1245.12ZM-504.59 499.781L-503.645 498.091C-503.526 497.878 -503.405 497.668 -503.282 497.459L-508.905 493.804C-509.405 494.479 -509.878 495.177 -510.322 495.896L-504.59 499.781ZM-512.596 494.354C-512.156 493.654 -511.691 492.973 -511.201 492.312L-516.482 488.879C-517.025 489.449 -517.548 490.043 -518.046 490.66L-512.596 494.354ZM-520.314 489.123C-519.829 488.519 -519.323 487.936 -518.798 487.373L-523.692 484.192C-524.277 484.668 -524.843 485.165 -525.387 485.684L-520.314 489.123ZM-527.685 484.127C-527.163 483.616 -526.622 483.124 -526.065 482.65L-530.451 479.799C-531.081 480.179 -531.693 480.581 -532.289 481.006L-527.685 484.127ZM-534.648 479.407C-534.088 478.984 -533.511 478.579 -532.921 478.194L-536.618 475.79C-537.301 476.07 -537.973 476.376 -538.632 476.707L-534.648 479.407ZM-541.125 475.017C-540.518 474.679 -539.9 474.362 -539.272 474.066L-542 472.292C-542.773 472.458 -543.533 472.654 -544.279 472.879L-541.125 475.017ZM-547.03 471.014C-546.447 470.797 -545.855 470.597 -545.255 470.413C-545.787 470.154 -546.326 469.914 -546.872 469.692C-547.523 469.703 -548.176 469.737 -548.83 469.794L-547.03 471.014ZM-1061.7 1184.27C-1062.02 1180.71 -1061.53 1177.22 -1060.27 1173.94L-1042.47 1185.52L-1050.94 1197.9C-1051.61 1198.88 -1052.2 1199.88 -1052.73 1200.9C-1057.91 1196.7 -1061.13 1190.79 -1061.7 1184.27ZM-1048.59 1199.31L-1040.17 1187.01L-1022.33 1198.61L-1032.38 1213.85L-1050.05 1202.82C-1050.19 1202.73 -1050.33 1202.64 -1050.47 1202.55C-1049.93 1201.44 -1049.3 1200.36 -1048.59 1199.31ZM-1030.05 1215.31L-1020.03 1200.1L-1002.76 1211.33L-1012.33 1226.37L-1030.05 1215.31ZM-1009.99 1227.83L-1000.45 1212.83L-983.691 1223.73L-992.816 1238.56L-1009.99 1227.83ZM-990.482 1240.02L-981.383 1225.23L-965.107 1235.81L-973.811 1250.43L-990.482 1240.02ZM-971.477 1251.89L-962.799 1237.31L-946.966 1247.6L-955.273 1262.01L-971.477 1251.89ZM-952.939 1263.46L-944.657 1249.1L-929.244 1259.12L-937.178 1273.31L-952.939 1263.46ZM-934.833 1274.77L-926.923 1260.63L-357.792 1630.59C-351.567 1634.63 -344.029 1636.16 -336.571 1634.9C-329.102 1633.62 -322.622 1629.71 -318.302 1623.88L169.835 964.176C173.575 959.116 175.341 952.962 174.8 946.837C174.098 938.874 169.688 931.704 162.701 927.165L-499.521 496.704C-499.083 496.079 -498.623 495.472 -498.141 494.883L201.699 931.915C208.43 936.122 212.684 942.879 213.348 950.461L213.337 950.474C213.843 956.066 212.33 961.513 208.999 966.196L-279.963 1654.03C-283.882 1659.52 -289.825 1663.26 -296.733 1664.55C-303.641 1665.84 -310.675 1664.54 -316.537 1660.89L-934.833 1274.77ZM-500.484 493.42C-500.952 493.998 -501.401 494.593 -501.83 495.203L-507.201 491.712C-506.723 491.176 -506.225 490.657 -505.709 490.157L-500.484 493.42ZM-508.07 488.683C-508.565 489.178 -509.044 489.688 -509.506 490.214L-514.487 486.976C-513.967 486.524 -513.432 486.091 -512.883 485.677L-508.07 488.683ZM-515.318 484.157C-515.837 484.571 -516.345 485.001 -516.839 485.447L-521.379 482.495C-520.821 482.127 -520.248 481.776 -519.663 481.444L-515.318 484.157ZM-522.216 479.849C-522.762 480.187 -523.296 480.541 -523.819 480.91L-527.746 478.357C-527.136 478.072 -526.514 477.806 -525.88 477.561L-522.216 479.849ZM-528.63 475.844C-529.208 476.105 -529.776 476.382 -530.333 476.675L-533.396 474.684C-532.704 474.49 -532.004 474.321 -531.298 474.178L-528.63 475.844ZM-534.648 472.305C-535.188 472.465 -535.724 472.639 -536.255 472.826L-537.969 471.712C-537.374 471.668 -536.78 471.643 -536.187 471.636C-535.668 471.843 -535.155 472.066 -534.648 472.305ZM-1051.52 1205.05C-1052.67 1208.27 -1053.11 1211.67 -1052.8 1215.14C-1052.22 1221.68 -1049.08 1227.6 -1044.01 1231.9C-1043.48 1230.81 -1042.87 1229.75 -1042.18 1228.71L-1033.85 1216.08L-1051.52 1205.05ZM-1031.52 1217.53L-1039.81 1230.1C-1040.56 1231.23 -1041.21 1232.41 -1041.76 1233.61C-1041.31 1233.92 -1040.85 1234.21 -1040.39 1234.49L-1023.83 1244.44L-1013.77 1228.62L-1031.52 1217.53ZM-1011.42 1230.09L-1021.46 1245.86L-1003.83 1256.46L-994.214 1240.83L-1011.42 1230.09ZM-991.88 1242.29L-1001.47 1257.88L-984.362 1268.16L-975.176 1252.72L-991.88 1242.29ZM-972.843 1254.18L-982.005 1269.57L-965.394 1279.56L-956.608 1264.32L-972.843 1254.18ZM-954.273 1265.78L-963.036 1280.97L-946.892 1290.67L-938.483 1275.64L-954.273 1265.78ZM-936.137 1277.1L-944.523 1292.1L-276.856 1693.33C-264.24 1700.91 -247.411 1697.45 -239.316 1685.63L250.473 969.682C253.722 964.938 255.182 959.462 254.684 953.846L254.686 953.857C253.98 945.871 249.462 938.819 242.282 934.502L-494.903 491.497C-495.399 491.942 -495.88 492.403 -496.345 492.879L203.219 929.737C210.681 934.394 215.369 941.87 216.114 950.248C216.653 956.443 215.004 962.456 211.319 967.648L-277.657 1655.47C-281.967 1661.55 -288.565 1665.69 -296.199 1667.13C-303.835 1668.55 -311.62 1667.12 -318.093 1663.07L-936.137 1277.1ZM-498.709 491.402C-498.263 490.934 -497.803 490.48 -497.33 490.038L-502.106 487.168C-502.629 487.538 -503.14 487.924 -503.637 488.325L-498.709 491.402ZM-506.044 486.822C-505.574 486.425 -505.092 486.041 -504.599 485.67L-508.856 483.111C-509.41 483.406 -509.954 483.718 -510.489 484.046L-506.044 486.822ZM-513.005 482.475C-512.509 482.146 -512.004 481.83 -511.491 481.528L-515.122 479.346C-515.719 479.565 -516.306 479.8 -516.883 480.053L-513.005 482.475ZM-519.57 478.376C-519.046 478.115 -518.513 477.867 -517.973 477.633L-520.609 476.049C-521.037 476.132 -521.465 476.224 -521.891 476.326C-522.121 476.38 -522.35 476.437 -522.578 476.497L-519.57 478.376ZM-525.555 474.638C-525.066 474.474 -524.572 474.321 -524.072 474.179C-524.541 473.965 -525.015 473.765 -525.493 473.577C-526.051 473.581 -526.608 473.599 -527.164 473.633L-525.555 474.638ZM-1043.9 1246.03C-1044.2 1242.66 -1043.81 1239.33 -1042.76 1236.18C-1042.48 1236.36 -1042.19 1236.54 -1041.9 1236.71L-1025.27 1246.7L-1033.43 1259.52C-1034.13 1260.62 -1034.74 1261.75 -1035.28 1262.9C-1040.2 1258.5 -1043.33 1252.49 -1043.9 1246.03ZM-1031.02 1260.88L-1022.91 1248.13L-1005.23 1258.75L-1015.31 1275.13L-1030.72 1266.2C-1031.53 1265.74 -1032.3 1265.23 -1033.04 1264.7C-1032.48 1263.39 -1031.81 1262.11 -1031.02 1260.88ZM-1012.93 1276.51L-1002.87 1260.17L-985.736 1270.46L-995.382 1286.67L-1012.93 1276.51ZM-993.002 1288.05L-983.379 1271.88L-966.735 1281.88L-975.977 1297.91L-993.002 1288.05ZM-973.597 1299.29L-964.377 1283.3L-948.203 1293.02L-957.064 1308.86L-973.597 1299.29ZM-954.674 1310.25L-945.835 1294.44L-278.372 1695.54C-264.459 1703.89 -245.887 1700.09 -236.963 1687.04L252.826 971.094C256.417 965.854 258.026 959.823 257.476 953.629C256.697 944.823 251.708 937.045 243.783 932.279L-492.708 489.7C-492.247 489.357 -491.775 489.025 -491.294 488.705L282.85 937.08C290.372 941.438 295.292 948.979 296.024 957.254C296.521 962.87 295.104 968.388 291.938 973.191L-198.688 1717.26C-202.605 1723.22 -208.789 1727.39 -216.063 1729.01C-223.326 1730.62 -230.835 1729.48 -237.198 1725.79L-954.674 1310.25ZM-493.87 487.213C-494.321 487.534 -494.762 487.865 -495.195 488.206L-499.591 485.565C-499.102 485.285 -498.605 485.018 -498.099 484.763L-493.87 487.213ZM-500.807 483.195C-501.272 483.456 -501.73 483.727 -502.18 484.009L-505.945 481.746C-505.419 481.531 -504.887 481.33 -504.349 481.143L-500.807 483.195ZM-507.299 479.435C-507.782 479.636 -508.26 479.848 -508.733 480.071L-511.675 478.303C-511.085 478.161 -510.494 478.035 -509.901 477.928L-507.299 479.435ZM-513.486 476.053C-513.921 476.173 -514.352 476.301 -514.779 476.437L-516.299 475.524C-515.822 475.5 -515.345 475.487 -514.869 475.486C-514.404 475.662 -513.943 475.851 -513.486 476.053ZM-1033.99 1267.3C-1034.94 1270.4 -1035.28 1273.64 -1034.99 1276.92C-1034.42 1283.4 -1031.37 1289.41 -1026.54 1293.9C-1026 1292.68 -1025.37 1291.49 -1024.66 1290.33L-1016.7 1277.4L-1032.19 1268.43C-1032.8 1268.07 -1033.41 1267.7 -1033.99 1267.3ZM-1014.32 1278.78L-1022.24 1291.65C-1023.06 1292.98 -1023.75 1294.36 -1024.32 1295.77C-1023.29 1296.55 -1022.19 1297.26 -1021.04 1297.91L-1006.81 1305.86L-996.744 1288.96L-1014.32 1278.78ZM-994.364 1290.34L-1004.4 1307.21L-986.961 1316.96L-977.307 1300.22L-994.364 1290.34ZM-974.927 1301.59L-984.56 1318.3L-967.633 1327.76L-958.363 1311.19L-974.927 1301.59ZM-955.973 1312.57L-965.222 1329.11L-197.515 1758.26C-190.904 1761.94 -183.157 1763 -175.704 1761.24C-168.238 1759.47 -161.96 1755.08 -158.013 1748.88L333.427 976.698C336.523 971.833 337.898 966.285 337.399 960.657L337.386 960.647C336.622 951.956 331.401 944.112 323.431 939.655L-487.305 486.448C-487.769 486.67 -488.227 486.901 -488.678 487.142L284.326 934.848C292.6 939.63 298.008 947.931 298.813 957.026C299.362 963.208 297.807 969.268 294.321 974.554L-196.306 1718.62C-200.626 1725.18 -207.425 1729.76 -215.424 1731.53C-223.435 1733.31 -231.692 1732.06 -238.677 1728L-955.973 1312.57ZM-491.365 485.586C-490.953 485.343 -490.534 485.107 -490.11 484.88L-493.624 482.916C-494.116 483.078 -494.602 483.25 -495.082 483.433L-491.365 485.586ZM-497.962 481.765C-497.535 481.574 -497.102 481.391 -496.665 481.216L-499.174 479.813C-499.714 479.906 -500.251 480.011 -500.785 480.13L-497.962 481.765ZM-504.02 478.256C-503.641 478.141 -503.259 478.032 -502.876 477.929C-503.297 477.748 -503.721 477.577 -504.148 477.416C-504.576 477.415 -505.004 477.422 -505.433 477.438L-504.02 478.256ZM-1026.11 1307.8C-1026.4 1304.62 -1026.09 1301.46 -1025.23 1298.43C-1024.35 1299.04 -1023.44 1299.62 -1022.49 1300.15L-1008.17 1308.15L-1015.9 1321.14C-1016.63 1322.37 -1017.27 1323.62 -1017.81 1324.91C-1022.55 1320.34 -1025.54 1314.31 -1026.11 1307.8ZM-1013.47 1322.43L-1005.77 1309.5L-988.291 1319.26L-998.318 1336.65L-1011.38 1329.6C-1012.88 1328.79 -1014.29 1327.86 -1015.6 1326.83C-1015.02 1325.32 -1014.31 1323.85 -1013.47 1322.43ZM-995.897 1337.96L-985.89 1320.61L-968.933 1330.09L-978.571 1347.32L-995.897 1337.96ZM-976.141 1348.63L-966.522 1331.43L-198.963 1760.51C-191.719 1764.56 -183.225 1765.72 -175.038 1763.77C-166.85 1761.84 -159.958 1757.02 -155.633 1750.22L335.807 978.038C339.198 972.693 340.712 966.603 340.165 960.432C339.326 950.909 333.605 942.307 324.856 937.418L-484.192 485.155C-483.759 484.999 -483.321 484.852 -482.879 484.714L364.025 942.241C372.443 946.796 377.954 954.945 378.76 964.039L378.749 964.052C379.237 969.693 377.903 975.271 374.878 980.198L-117.387 1780.51C-125.547 1793.78 -143.705 1798.35 -157.858 1790.71L-976.141 1348.63ZM-486.029 483.012C-486.419 483.162 -486.805 483.318 -487.187 483.48L-489.953 481.934C-489.475 481.835 -488.995 481.747 -488.515 481.669L-486.029 483.012ZM-492.971 479.966C-493.082 479.997 -493.194 480.028 -493.305 480.061L-494.559 479.36C-494.19 479.35 -493.822 479.346 -493.453 479.349C-493.075 479.489 -492.699 479.637 -492.326 479.792C-492.541 479.848 -492.756 479.906 -492.971 479.966ZM-1016.46 1329.53C-1017.24 1332.51 -1017.51 1335.59 -1017.24 1338.68C-1016.66 1345.22 -1013.73 1351.27 -1009.07 1355.91C-1008.53 1354.56 -1007.88 1353.24 -1007.14 1351.96L-999.642 1338.95L-1012.78 1331.85C-1014.07 1331.15 -1015.3 1330.38 -1016.46 1329.53ZM-997.222 1340.26L-1004.69 1353.21C-1005.56 1354.72 -1006.29 1356.29 -1006.86 1357.9C-1005.29 1359.18 -1003.57 1360.31 -1001.71 1361.28L-989.847 1367.48L-979.865 1349.64L-997.222 1340.26ZM-977.436 1350.95L-987.399 1368.76L-118.201 1823.16C-111.089 1826.88 -102.868 1827.77 -95.0344 1825.69C-87.2014 1823.61 -80.7085 1818.79 -76.7374 1812.12L416.353 983.695C419.31 978.717 420.615 973.108 420.124 967.444C419.287 957.933 413.485 949.469 404.608 944.828L-477.808 483.536C-478.231 483.601 -478.652 483.674 -479.073 483.755L365.411 939.986C374.632 944.97 380.657 953.886 381.528 963.838C382.063 970.01 380.614 976.116 377.292 981.51L-114.973 1781.82C-123.909 1796.34 -143.783 1801.36 -159.264 1792.99L-977.436 1350.95ZM-482.562 481.87L-483.724 481.242C-483.423 481.237 -483.123 481.237 -482.822 481.24C-482.46 481.371 -482.099 481.509 -481.74 481.653C-482.015 481.722 -482.288 481.795 -482.562 481.87ZM-1008.36 1369.55C-1008.62 1366.56 -1008.39 1363.56 -1007.68 1360.67C-1006.25 1361.74 -1004.71 1362.72 -1003.08 1363.57L-991.147 1369.81L-998.397 1382.77C-999.146 1384.11 -999.792 1385.49 -1000.33 1386.9C-1004.92 1382.19 -1007.78 1376.13 -1008.36 1369.55ZM-995.911 1383.98L-988.699 1371.09L-119.534 1825.44C-111.781 1829.49 -102.801 1830.47 -94.2497 1828.19C-85.6969 1825.92 -78.6041 1820.66 -74.2687 1813.38L418.822 984.954C422.053 979.523 423.473 973.386 422.926 967.215C422.007 956.826 415.679 947.595 405.974 942.528L-472.797 483.141C-472.582 483.14 -472.366 483.141 -472.151 483.145C-470.854 483.607 -469.581 484.153 -468.34 484.782L445.177 947.406C454.526 952.142 460.628 960.897 461.498 970.836L461.5 970.848C462.003 976.51 460.729 982.163 457.829 987.192L-36.0865 1843.75C-44.2914 1857.98 -63.3296 1863.3 -78.5192 1855.62L-992.038 1392.97C-994.257 1391.85 -996.293 1390.5 -998.12 1388.96C-997.547 1387.25 -996.809 1385.59 -995.911 1383.98ZM-998.909 1391.79C-997.207 1393.11 -995.354 1394.28 -993.365 1395.29L-79.834 1857.93C-63.2961 1866.31 -42.5465 1860.5 -33.6073 1844.99L460.309 988.438C463.47 982.957 464.837 976.791 464.302 970.619C463.339 959.803 456.695 950.26 446.519 945.109L-462.767 484.616C-461.057 485.14 -459.381 485.803 -457.756 486.603L485.748 950.006C495.555 954.816 501.961 963.885 502.874 974.24L502.886 974.238C503.392 979.912 502.16 985.606 499.317 990.687L4.57502 1875.36C0.580369 1882.49 -6.12878 1887.74 -14.3282 1890.14C-22.5397 1892.55 -31.2376 1891.81 -38.8498 1888.07L-982.365 1424.68C-992.161 1419.86 -998.565 1410.8 -999.48 1400.43C-999.739 1397.52 -999.543 1394.62 -998.909 1391.79Z" fill="black" fill-opacity="0.1"/>
</g>
<defs>
<clipPath id="clip0_197_351">
<rect width="549" height="1132" fill="white"/>
</clipPath>
</defs>
</svg>
