<svg xmlns="http://www.w3.org/2000/svg" width="549" height="1132" fill="none" xmlns:v="https://vecta.io/nano"><g clip-path="url(#A)"><path fill-rule="evenodd" d="M-1182.07 735.589c-5.93 3.661-9.27 10.062-8.68 16.707.27 3.004 1.35 5.935 3.12 8.469l8.39 11.964c-1.81 3.152-2.67 6.779-2.35 10.438.31 3.362 1.58 6.586 3.69 9.347l8.02 10.46a18.28 18.28 0 0 0-2.57 11.055v-.011c.33 3.733 1.8 7.271 4.26 10.235l7.59 9.115c-2.12 3.449-3.11 7.466-2.75 11.528l-.01.002c.37 4.102 2.05 7.941 4.89 11.106l7.03 7.835c-2.2 3.553-3.21 7.682-2.83 11.916.39 4.495 2.3 8.635 5.53 11.987l6.41 6.665c-2.24 3.658-3.27 7.896-2.89 12.22.42 4.808 2.62 9.369 6.19 12.855l5.73 5.575c-2.25 3.741-3.29 8.065-2.9 12.434.45 5.19 2.9 10.06 6.89 13.719l4.99 4.569c-2.23 3.807-3.25 8.188-2.86 12.589.49 5.593 3.19 10.76 7.59 14.568l4.18 3.613c-2.19 3.852-3.16 8.217-2.77 12.686v-.012c.52 5.997 3.47 11.487 8.31 15.437l3.33 2.74c-2.12 3.88-3.05 8.25-2.67 12.7.57 6.41 3.79 12.19 9.05 16.29l2.45 1.91a22.98 22.98 0 0 0-2.53 12.68c.59 6.71 4.16 12.96 9.79 17.14l1.54 1.14c-1.93 3.9-2.77 8.24-2.38 12.59.63 7.13 4.48 13.69 10.55 17.99l.61.42c-1.82 3.9-2.6 8.19-2.22 12.47h.01c.65 7.4 4.64 14.16 10.97 18.59-1.7 3.87-2.41 8.09-2.04 12.29.66 7.44 4.56 14.2 10.78 18.75a25.45 25.45 0 0 0-1.86 12.13c.66 7.49 4.48 14.26 10.62 18.94a26.17 26.17 0 0 0-1.71 11.93l-.01-.01c.67 7.56 4.42 14.35 10.47 19.13-1.39 3.75-1.93 7.73-1.57 11.76h.01c.66 7.48 4.43 14.4 10.33 19.3-1.29 3.71-1.78 7.63-1.44 11.58h-.01c.67 7.52 4.38 14.48 10.22 19.48-1.21 3.67-1.66 7.52-1.31 11.4.66 7.58 4.31 14.55 10.08 19.65-1.13 3.62-1.54 7.42-1.21 11.23h-.01c.68 7.64 4.28 14.65 9.99 19.84a29.82 29.82 0 0 0-1.1 11.04c.68 7.69 4.22 14.73 9.86 20.01-.98 3.54-1.32 7.21-1 10.89v-.01c1 11.27 7.953 21.11 18.613 26.34l943.516 463.41c8.264 4.06 17.73 4.87 26.646 2.25 8.918-2.61 16.211-8.31 20.544-16.07l494.742-884.669c3.082-5.517 4.421-11.703 3.885-17.887-.986-11.257-7.945-21.113-18.604-26.347l-943.517-463.401a36.65 36.65 0 0 0-15.137-3.742 35.72 35.72 0 0 0-10.676-1.909c-3.485-1.202-7.092-1.822-10.677-1.896-3.443-1.215-7.054-1.862-10.703-1.927-3.422-1.222-7.019-1.87-10.658-1.923-3.448-1.247-7.044-1.873-10.619-1.917-3.44-1.278-7.087-1.941-10.783-1.958-3.365-1.26-6.94-1.913-10.569-1.927a29.72 29.72 0 0 0-10.731-1.962c-3.363-1.305-6.966-1.966-10.633-1.945a28.25 28.25 0 0 0-10.658-1.965c-3.406-1.377-7.04-2.028-10.649-1.981-3.342-1.384-6.973-2.07-10.691-1.998-3.37-1.414-6.998-2.072-10.602-1.994-3.307-1.436-6.946-2.142-10.691-2.036-3.122-1.376-6.559-2.081-10.109-2.04l-.562.012a23.84 23.84 0 0 0-10.611-2.04c-3.325-1.532-6.994-2.229-10.639-2.075-3.307-1.562-6.985-2.271-10.638-2.097-3.283-1.587-6.96-2.307-10.616-2.114-3.259-1.616-6.939-2.352-10.601-2.142-6.087-3.103-13.76-3.049-19.945.76l-477.417 294.129zm492.283-293.967c-4.396-1.081-9.247-.479-13.339 2.038l-477.394 294.126c-5.08 3.129-7.93 8.607-7.42 14.292.22 2.567 1.14 5.073 2.66 7.238l7.7 10.983a19.12 19.12 0 0 1 4.23-3.88l478.246-322.244c1.669-1.125 3.462-1.972 5.317-2.553zM-1175.95 772.63c1.12-1.555 2.55-2.939 4.24-4.083l478.222-322.252c2.48-1.668 5.278-2.627 8.115-2.919.907.517 1.768 1.119 2.566 1.804a20.91 20.91 0 0 0-2.75 1.698L-1160.7 794.386l-15.25-21.756zm-1.53 2.623c-1.08 2.371-1.55 4.998-1.31 7.698.25 2.889 1.34 5.667 3.16 8.043l7.4 9.653a19.5 19.5 0 0 1 3.62-3.4l1.68-1.234-14.55-20.76zm16.09 22.953l-1.5 1.102a17.05 17.05 0 0 0-3.63 3.572l16.05 20.934 4.53-3.573-15.45-22.035zm16.99 24.231l-4.45 3.502 16 20.864 3.47-2.934-15.02-21.432zm17.13 19.647l-14.97-21.355 465.778-367.359 3.248 4.635-454.056 384.079zm-.56 4l-3.38 2.859 15.52 20.251 2.49-2.241-14.63-20.869zm16.68 19.012l-14.57-20.796 454.062-384.074 3.474 4.956-442.966 399.914zm-.49 4.086l-2.4 2.163 15.1 19.698 1.57-1.502-14.27-20.359zm16.27 18.433l-14.22-20.29 442.968-399.913 3.687 5.26-432.435 414.943zm-.43 4.166l-1.48 1.42 14.7 19.183.71-.721-13.93-19.882zm15.89 17.89l-13.89-19.816 432.435-414.943 3.873 5.527-422.418 429.232zm-.38 4.248l-.62.636 12.5 16.316-11.88-16.952zm15.54 17.386l-13.58-19.377 422.423-429.227 4.048 5.776-412.891 442.828zm14.88 21.23l-13.29-18.963 412.885-442.834 4.221 6.021-403.816 455.776zm14.61 20.852l-13.01-18.569 403.824-455.764 4.35 6.208-395.164 468.125zm5.94 8.471l-4.32-6.158 395.169-468.119 4.494 6.411-386.493 479.413-8.85-11.547zm44.665 63.732l-3.422-4.88 5.479 6.58 3.105 4.05-5.162-5.75zm-2.147 1.71l6.089 8.69-.983 1.38-14.117-14.66 2.208-2.99 6.803 7.58zm-20.028-28.57l6.895 9.83-7.785-8.67.89-1.16zm-2.47-3.52l.83 1.17-1.11 1.44-14.25-15.89 1.71-2.129 12.82 15.409zm-22.43-32.013l3.49 4.989-7.91-9.51.5-.59 3.92 5.111zm52.682 75.173l4.534 6.47-5.253-5.46.719-1.01zm13.576 14.6l-6.057-8.65 6.792 7.57-.735 1.08zm3.26 4.65l-1.579-2.26.939-1.37 4.932 5.5 7.596 9.91-.224.34-11.664-12.12zm-2.174 1.67l-1.22-1.27-2.666 3.9 13.937 13.56.63-.95-10.681-15.24zm12.376 17.65l-.322.49 2.089 2.03-1.767-2.52zm12.28 12.76l-10.66-15.21.258-.39 13.233 13.75-1.811 2.84-1.02-.99zm-2.161 1.68l1.437 2.05-2.839 4.46-14.048-12.86 3.488-5.29 11.962 11.64zm3.15 4.5l11.39 16.25-.143.23-13.734-12.58 2.487-3.9zm12.951 13.71l-5.59-7.98 6.566 6.39-.976 1.59zm8.476 12.09l-6.754-9.63 1.275-2.08 13.093 12.75-2.288 3.84-5.326-4.88zm-2.144 1.71l5.061 7.22-2.442 4.1-13.82-11.95 3.789-6.16 7.412 6.79zm6.792 9.69l9.324 13.3-11.384-9.84 2.06-3.46zm12.59 13.2l-10.063-14.36 12.004 11-1.941 3.36zm5.204 7.43l-3.463-4.94 2.277-3.95 11.905 10.9.895 1.17-2.587 4.62-9.027-7.8zm-2.138 1.71l-3.443-2.98-4.038 7 13.582 11.13 2.006-3.59-8.107-11.56zm9.587 8.92l-1.119-1.6 1.356 1.17-.237.43zm.28 5.16l-1.595 2.85 8.442 6.91-6.847-9.76zm14.676 16.18l-13.196-18.83.61-1.09 25.495 22.05 4.386 5.72c-2.974.45-6.019.14-8.793-.89l-8.502-6.96zm-2.094 1.77l.5.71c2.173 3.11 5.194 5.38 8.59 6.73l30.503 24.99.609.8c2.046 2.67 4.707 4.68 7.672 5.99l31.365 25.69.691.83c1.872 2.26 4.178 4.01 6.722 5.25l32.181 26.36.797.89a20.66 20.66 0 0 0 5.777 4.5l33.129 27.14.832.86a21.41 21.41 0 0 0 4.767 3.73l33.848 27.73 1.073 1.04a21.73 21.73 0 0 0 3.868 3l34.809 28.52 1.059.97a22.7 22.7 0 0 0 2.77 2.17l31.655 25.93-293.321-228.33 4.591-8.21 15.513 12.71zm15.037 8.83c2.04.17 4.114.03 6.142-.42l11.234 14.66-17.376-14.24zm11.229-2.29l15.678 13.55-12.746-15.31-1.853 1.14c-.355.22-.715.42-1.079.62zm5.966-3.63l10.361 9.48-9.172-10.22-1.189.74zm-.678-2.72l-1.368.84-2.325-2.13-10.11-12.15 13.803 13.44zm5.619-.33l30.573 31.77 1.725 1.68 475.171-320.182c4.942-3.334 7.584-8.706 7.088-14.404l-.012.001c-.253-2.889-1.349-5.666-3.159-8.031l-230.23-300.351-6.945 12.418 198.94 283.863c1.771 2.533 2.85 5.464 3.117 8.457.587 6.645-2.735 13.055-8.691 16.708l-467.577 288.071zm272.716-594.425l198.069 282.627c1.523 2.166 2.457 4.67 2.679 7.236l.014.01c.495 5.687-2.356 11.166-7.437 14.306l-467.935 288.276-29.853-31.01-5.868-6.54 310.331-554.905zm-.268-5.19l6.875-12.293-5.507-7.184-6.779 11.756 5.411 7.721zm-6.932-5.084l5.437 7.758-310.518 555.241-11.91-13.27 316.991-549.729zm-.221-5.122l6.709-11.635-5.439-7.096-6.612 11.108 5.342 7.623zm-6.889-5.023l5.368 7.66-317.182 550.064-12.114-13.5 323.928-544.224zm-.184-5.069l6.541-10.989-5.364-6.998-6.442 10.474 5.265 7.513zm-6.84-4.953l5.293 7.552-324.121 544.544-12.323-13.73 331.151-538.366zm-.151-5.024l6.37-10.356-5.29-6.901-6.27 9.853 5.19 7.404zm-6.793-4.885l5.218 7.445-331.343 538.69-8.003-8.91-4.401-5.29 338.529-531.935zm-.104-4.955l6.198-9.738-5.209-6.795-6.096 9.246 5.107 7.287zm-6.74-4.811l5.137 7.33-338.674 532.141-12.37-14.87 345.907-524.601zm-.063-4.896l6.023-9.134-5.109-6.665-5.921 8.654 5.007 7.145zm-6.671-4.713l5.039 7.19-346.047 524.82-12.602-15.14 353.61-516.87zm-.025-4.842l5.846-8.546-5.021-6.55-5.743 8.079 4.918 7.017zm-6.614-4.631l4.95 7.063-353.744 517.08-12.844-15.43 361.638-508.713zm.026-4.768l5.668-7.973-4.925-6.425-5.564 7.519 4.821 6.879zm-6.55-4.542l4.854 6.928-361.777 508.915-3.788-4.55-8.959-11.68 369.67-499.613zm.079-4.692l5.488-7.416-4.812-6.277-5.383 6.977 4.707 6.716zm-6.472-4.429l4.743 6.767-369.75 499.707-12.839-16.75 377.846-489.724zm.124-4.629l5.306-6.877-4.693-6.122-5.201 6.452 4.588 6.547zm-6.39-4.312l4.625 6.599-377.935 489.816-13.1-17.094 386.41-479.321zm.174-4.557l5.123-6.355-4.559-5.948-5.019 5.946 4.455 6.357zm-6.08-8.676l4.94-5.851-4.414-5.757-4.836 5.458 4.31 6.15zm-5.918-8.445l4.755-5.367-4.281-5.584-4.652 4.99 4.178 5.961zm-5.763-8.222l4.572-4.902-4.104-5.353-4.471 4.543 4.003 5.712zm-5.588-7.974l4.388-4.458-3.925-5.12-4.29 4.117 3.827 5.461zm-5.397-7.701l4.206-4.036-3.731-4.867-4.113 3.713 3.638 5.19zm-5.2-7.42l4.026-3.634-3.51-4.579-3.938 3.331 3.422 4.882zm-4.978-7.103l3.849-3.256-2.295-2.994c-.208-.271-.424-.535-.646-.791-1.411.622-2.759 1.424-4.006 2.409l-.096.075 3.194 4.557zm-4.742-6.766c1.138-.88 2.347-1.629 3.605-2.25-.785-.638-1.623-1.201-2.501-1.687-1.153.109-2.3.325-3.423.648a16.55 16.55 0 0 1 .366.503l1.953 2.786zm-5.015-2.276a17.86 17.86 0 0 0-2.98 1.764L-1159.16 796.58l15.38 21.953 465.769-367.372-2.135-3.048a16.14 16.14 0 0 0-.711-.938zm.79-3.17a23.46 23.46 0 0 1 .751-.245c-.424-.099-.853-.183-1.284-.251.181.161.359.327.533.496zm-167.02 766.145l-1.667 1.03c-.559.34-1.132.65-1.716.92l-6.963-6.02-15.163-19.78 23.799 21.8 1.71 2.05zm-322.583-396.335a15.74 15.74 0 0 1 1.62-8.456l15.44 20.142-3.27 2.575a20.11 20.11 0 0 0-3.08 3.004l-7.02-8.433c-2.13-2.56-3.4-5.608-3.69-8.832zm15.59 16.254l3.09-2.442 16.05 20.938-5.56 4.706-16.68-20.052c.88-1.156 1.92-2.216 3.1-3.15zm15.3 25.272l5.49-4.636 15.57 20.321-4.57 4.128-16.49-19.813zm18.22 21.892l4.49-4.055 15.15 19.764-3.65 3.506-15.99-19.215zm17.72 21.298l3.58-3.43 14.75 19.246-2.8 2.845-15.53-18.661zm17.27 20.754l2.72-2.767 14.39 18.767-2 2.151-15.11-18.151zm16.85 20.249l1.93-2.07 14.04 18.319-1.26 1.426-14.71-17.675zm16.46 19.784l1.19-1.344 13.72 17.894-.57.677-14.34-17.227zm119.034 147.892l1.967 2.57 4.815 5-2.486-2.99-4.22-4.7-.076.12zm10.23 17.84l-10.387-13.55-1.548-1.61-1.76 2.77 13.334 12.98.361-.59zm-25.174-32.84l-.386-.51-.04.06.426.45zm28.011 36.54l-1.044-1.36-.133.21 1.177 1.15zm3.688.32l8.385 10.94.819-1.38-9.204-9.56zm6.555 19.39l2.127-3.57 11.443 14.92-.405.71-13.165-12.06zm14.762 8.42l.286.37.035-.06-.321-.31zm.48 5.54l.139-.24.949 1.23-1.088-.99zm1.618-2.81l11.027 14.39.256.23 1.568-2.8-12.595-12.26-.256.44zm25.404 37.64l-13.775-17.97-2.284 4.08 16.059 13.89zm18.314 19.39l16.453 21.47 7.737 6.34a18.27 18.27 0 0 0 7.743 1.37l-4.648-5.58-27.285-23.6zm33.974 31.64a21.17 21.17 0 0 1-5.03.06l15.963 13.08-10.933-13.14zm16.491 8.44l-11.339-9.8c.607-.25 1.205-.53 1.792-.84l9.547 10.64zm29.568 18.87l-33.825-32.93 474.84-319.952c5.648-3.816 8.808-10.23 8.239-16.749-.293-3.363-1.561-6.587-3.673-9.348l-231.054-301.419 6.081-10.872 263.293 316.432c2.134 2.56 3.405 5.62 3.69 8.833l-.002-.011c.499 5.627-2.025 11.044-6.764 14.505l-479.056 350.371a17.25 17.25 0 0 1-1.769 1.14zm218.711-693.549l-6.017 10.76-5.481-7.151 5.936-10.294 5.562 6.685zm-7.437-8.938l-5.873 10.184-5.412-7.061 5.79-9.727 5.495 6.604zm-7.361-8.847l-5.726 9.62-5.336-6.961 5.642-9.172 5.42 6.513zm-7.284-8.754l-5.576 9.066-5.261-6.862 5.492-8.628 5.345 6.424zm-7.191-8.642l-5.425 8.525-5.179-6.756 5.339-8.097 5.265 6.328zm-7.101-8.534l-5.272 7.995-5.077-6.624 5.184-7.578 5.165 6.207zm-6.997-8.409l-5.116 7.479-4.988-6.507 5.028-7.073 5.076 6.101zm-6.89-8.281l-4.959 6.977-4.891-6.381 4.87-6.581 4.98 5.985zm-6.775-8.143l-4.801 6.488-4.776-6.23 4.711-6.106 4.866 5.848zm-6.655-7.997l-4.64 6.013-4.655-6.072 4.55-5.644 4.745 5.703zm-6.523-7.84l-4.478 5.555-4.519-5.896 4.388-5.198 4.609 5.539zm-6.387-7.676l-4.315 5.111-4.372-5.703 4.226-4.77 4.461 5.362zm-6.225-7.481l-4.151 4.685-4.237-5.527 4.062-4.357 4.326 5.199zm-6.066-7.292l-3.988 4.277-4.057-5.293 3.901-3.964 4.144 4.98zm-5.89-7.078l-3.824 3.885-3.876-5.056 3.74-3.588 3.96 4.759zm-5.694-6.843l-3.661 3.513-3.68-4.8 3.454-3.118.127-.114 3.76 4.519zm-5.82-6.3l-3.17 2.861-3.425-4.468c1.243-.904 2.574-1.642 3.962-2.216a17.42 17.42 0 0 1 .578.658l2.388 2.87-.333.295zm-4.772-5.778c-1.201.567-2.36 1.246-3.458 2.037l-2.146-2.799-.183-.235a19.46 19.46 0 0 1 3.336-.587 17.66 17.66 0 0 1 2.451 1.584zm-7.201-3.334l-.577.182-.412-.372a19.59 19.59 0 0 1 .989.19zm-143.632 799.066c.76-.25 1.508-.55 2.237-.9l-3.252-3.63-20.373-18.65 13.924 16.73 7.464 6.45zm-346.225-409.312c-1.46 2.768-2.12 5.891-1.84 9.04.32 3.559 1.79 6.888 4.25 9.631l6.51 7.261c.79-.95 1.68-1.842 2.65-2.667l4.57-3.863-16.14-19.402zm17.87 21.472l-4.43 3.743a18.48 18.48 0 0 0-2.67 2.777l17.2 19.17 6.44-5.809-16.54-19.881zm18.27 21.96l-6.36 5.741 16.89 18.824 5.51-5.287-16.04-19.278zm17.77 21.362l-5.43 5.216 16.36 18.233 4.65-4.728-15.58-18.721zm17.32 20.814l-4.58 4.655 15.87 17.691 3.86-4.137-15.15-18.209zm16.9 20.307l-3.79 4.062 15.42 17.187 3.12-3.519-14.75-17.73zm16.5 19.838l-3.04 3.442 14.99 16.714 2.43-2.877-14.38-17.279zm16.16 19.41l-2.37 2.797 14.62 16.284 1.78-2.213-14.03-16.868zm164.526 193.469l-2.734-3.29 4.667 4.85 2.259 2.52-4.192-4.08zm-28.928-30.5l9.003 10.82-.105.18-12.812-12.47.956-1.6 2.958 3.07zm26.844 32.26l13.873 16.67-18.064-16.54 1.524-2.73 2.667 2.6zm82.212 94.54l-16.118-19.37 24.79 21.43 4.745 5.29c-2.247-.17-4.456-.73-6.497-1.68l-6.92-5.67zm12.036 9.86c1.248.16 2.511.21 3.772.16l9.932 11.06-13.704-11.22zm8.958-.7l4.816 4.16-4.194-4.35c-.114.03-.228.07-.343.1l-.279.09zm4.97-2.19l26.477 25.77 6.808 6.24c2.536-.63 4.967-1.78 7.105-3.46l479.882-378.488c4.548-3.591 6.968-9.041 6.478-14.6l.002.011c-.307-3.56-1.775-6.888-4.247-9.642l-297.134-331.122-5.332 9.535 264.075 317.372c2.462 2.965 3.946 6.502 4.276 10.234.567 6.496-2.362 12.778-7.836 16.783l-479.056 350.367c-.488.36-.987.69-1.498 1zm218.142-698.035l5.275-9.432-5.606-6.248-5.205 9.027 5.536 6.653zm-7.411-8.907l5.147-8.927-5.539-6.172-5.076 8.528 5.468 6.571zm-7.334-8.814l5.018-8.43-5.464-6.089-4.945 8.04 5.391 6.479zm-7.255-8.72l4.885-7.943-5.39-6.006-4.811 7.56 5.316 6.389zm-7.161-8.606l4.751-7.466-5.309-5.917-4.677 7.092 5.235 6.291zm-7.071-8.497l4.616-7-5.209-5.804-4.539 6.635 5.132 6.169zm-6.964-8.371l4.477-6.544-5.12-5.706-4.4 6.19 5.043 6.06zm-6.857-8.24l4.337-6.101-5.023-5.598-4.259 5.756 4.945 5.943zm-6.74-8.101l4.195-5.669-4.907-5.469-4.116 5.335 4.828 5.803zm-6.617-7.952l4.051-5.251-4.785-5.333-3.973 4.927 4.707 5.657zm-6.484-7.793l3.906-4.846-4.647-5.179-3.828 4.534 4.569 5.491zm-6.347-7.628l3.76-4.454-4.496-5.011-3.682 4.155 4.418 5.31zm-6.182-7.429l3.613-4.078-4.359-4.858-3.535 3.791 4.281 5.145zm-6.022-7.237l3.465-3.716-4.172-4.65-3.389 3.443 4.096 4.923zm-5.842-7.022l3.317-3.37-3.939-4.389a20.38 20.38 0 0 0-1.241 1.096l-2.047 1.964 3.91 4.699zm-5.643-6.782l1.781-1.709a22.49 22.49 0 0 1 1.442-1.272l-2.469-2.752c-.164-.182-.33-.36-.499-.534a19.98 19.98 0 0 0-3.824 1.977l3.569 4.29zm-5.292-6.36c1.059-.713 2.169-1.327 3.317-1.845-.757-.556-1.552-1.049-2.377-1.478a20.12 20.12 0 0 0-3.265.528l2.325 2.795zm-4.402-4.948l.417-.127c-.238-.049-.477-.094-.717-.135l.3.262zm-114.938 829.282c-.331.09-.664.16-.998.23l-7.724-6.68-10.419-11.61 14.818 13.57 4.323 4.49zm-377.748-401.832c-.3-3.362.4-6.644 1.98-9.543l16.72 18.633-5.63 5.082c-.84.761-1.62 1.575-2.31 2.432l-5.94-6.166c-2.81-2.923-4.48-6.531-4.82-10.438zm15 16.067l5.5-4.966 16.95 18.886-7.18 6.89-17.6-18.288a19.47 19.47 0 0 1 2.33-2.522zm17.14 22.758l7.12-6.825 16.41 18.291-6.31 6.417-17.22-17.883zm19.09 19.835l6.25-6.348 15.93 17.745-5.52 5.913-16.66-17.31zm18.55 19.264l5.44-5.843 15.47 17.238-4.77 5.383-16.14-16.778zm18.03 18.738l4.71-5.312 15.04 16.764-4.08 4.831-15.67-16.283zm17.57 18.26l4.02-4.757 14.65 16.327-3.43 4.26-15.24-15.83zm17.15 17.82l3.37-4.19 14.3 15.93-2.83 3.67-14.84-15.41zm16.75 17.4l2.78-3.59 13.951 15.56-2.266 3.06-14.465-15.03zm198.963 210.94l1.911 2.13 3.528 3.23-1.009-1.05-4.43-4.31zm45.051 50.2l14.535 16.2 6.06 4.96a18.97 18.97 0 0 0 4.998 1.75l-4.427-4.6-21.166-18.31zm28.474 25.9c-.796-.04-1.59-.11-2.377-.23l10.206 8.36-7.829-8.13zm41.441 29.56l-33.474-30.65a21.45 21.45 0 0 0 6.611-3.54l479.881-378.493c5.245-4.129 8.037-10.418 7.471-16.82-.356-4.103-2.054-7.942-4.892-11.107l-297.868-331.932 4.679-8.366 331.666 344.597c2.804 2.912 4.473 6.532 4.814 10.438l-.001-.011c.494 5.593-1.765 10.954-6.203 14.707l-480.708 406.607c-3.431 2.9-7.688 4.42-11.976 4.57zm160.402-782.992l-4.627 8.273-5.58-6.217 4.566-7.917 5.641 5.861zm-7.627-7.924l-4.512 7.826-5.512-6.142 4.45-7.476 5.574 5.792zm-7.552-7.847l-4.396 7.387-5.435-6.057 4.332-7.043 5.499 5.713zm-7.478-7.769l-4.277 6.955-5.36-5.973 4.212-6.619 5.425 5.637zm-7.385-7.673l-4.157 6.532-5.279-5.882 4.091-6.204 5.345 5.554zm-7.298-7.583l-4.034 6.119-5.176-5.767 3.967-5.799 5.243 5.447zm-7.195-7.475l-3.91 5.716-5.085-5.667 3.841-5.404 5.154 5.355zm-7.088-7.365l-3.784 5.322-4.987-5.557 3.714-5.019 5.057 5.254zm-6.975-7.246l-3.655 4.939-4.869-5.426 3.584-4.646 4.94 5.133zm-6.853-7.121l-3.525 4.568-4.746-5.288 3.454-4.284 4.817 5.004zm-6.722-6.983l-3.392 4.208-4.606-5.132 3.322-3.935 4.676 4.859zm-6.585-6.842l-3.259 3.861-4.452-4.962 3.188-3.598 4.523 4.699zm-6.419-6.67l-3.125 3.527-4.313-4.806 3.054-3.275 4.384 4.554zm-6.259-6.502l-2.989 3.206-4.124-4.595.725-.737c.737-.749 1.525-1.437 2.358-2.061l4.03 4.187zm-8.454-3.899l-.477.484-3.615-4.029c1.159-.707 2.387-1.298 3.668-1.766.148.144.293.29.437.439l2.535 2.635c-.897.681-1.749 1.428-2.548 2.237zm-2.749-7.232a23.34 23.34 0 0 0-3.154 1.669l-2.31-2.574a21.06 21.06 0 0 1 3.167-.469 19.07 19.07 0 0 1 2.297 1.374zm-7.404-3.125l-.104.03-.125.037-.045-.038-.045-.039-.076-.064.257.047.138.027zm-492.428 446.437c-1.66 3.025-2.41 6.455-2.1 9.943.36 4.207 2.29 8.193 5.43 11.253l5.27 5.134c.63-.791 1.32-1.547 2.06-2.26l6.5-6.236-17.16-17.834zm19.04 19.781l-6.38 6.117a18.99 18.99 0 0 0-2.08 2.352l17.9 17.423 7.82-7.952-17.26-17.94zm19.14 19.892l-7.76 7.89 17.46 16.997 7.01-7.524-16.71-17.363zm18.59 19.317l-6.95 7.459 16.89 16.439 6.26-7.07-16.2-16.828zm18.09 18.787l-6.21 7.003 16.36 15.921 5.56-6.594-15.71-16.33zm17.62 18.308l-5.51 6.525 15.87 15.451 4.92-6.1-15.28-15.876zm17.19 17.866l-4.86 6.02 15.42 15.02 4.31-5.59-14.87-15.45zm16.79 17.44l-4.25 5.52 15.01 14.61 3.741-5.06-14.501-15.07zm16.424 17.07l-3.694 4.98 14.632 14.25 3.216-4.53-14.154-14.7zm16.083 16.71l-3.162 4.45 14.268 13.88 2.719-3.97-13.825-14.36zm236.407 241.7l-1.275-1.32 3.14 2.87.57.56-2.435-2.11zm30.919 32.13l-10.474-10.89 14.776 12.78 3.832 3.73a19.31 19.31 0 0 1-2.874-1.32l-5.26-4.3zm11.153 9.13c.232.04.464.08.698.11l3.018 2.94-3.716-3.05zm7.244.08l25.544 23.4 7.059 6.1c6.066 1.09 12.59-.5 17.369-4.82l481.533-434.733c4.275-3.861 6.441-9.258 5.953-14.806l.012-.001c-.369-4.207-2.3-8.204-5.421-11.254l-366.777-357.003-4.103 7.336 332.358 345.316c3.224 3.353 5.137 7.492 5.531 11.976.568 6.414-2.031 12.563-7.115 16.872l-480.72 406.607c-3.262 2.76-7.176 4.42-11.223 5.01zm159.164-787.864l4.055-7.251-5.67-5.519-4 6.936 5.615 5.834zm-7.6-7.897l3.951-6.853-5.603-5.453-3.895 6.544 5.547 5.762zm-7.524-7.817l3.846-6.462-5.528-5.38-3.788 6.159 5.47 5.683zm-7.449-7.739l3.739-6.077-5.454-5.309-3.679 5.781 5.394 5.605zm-7.354-7.641l3.628-5.702-5.373-5.23-3.569 5.412 5.314 5.52zm-7.266-7.549l3.517-5.334-5.271-5.13-3.456 5.051 5.21 5.413zm-7.161-7.441l3.403-4.974-5.182-5.043-3.34 4.699 5.119 5.318zm-7.054-7.328l3.287-4.624-5.084-4.949-3.223 4.357 5.02 5.216zm-6.938-7.208l3.17-4.284-4.966-4.833-3.105 4.025 4.901 5.092zm-6.814-7.08l3.05-3.953-4.841-4.712-2.985 3.702 4.776 4.963zm-6.681-6.941l2.929-3.633-4.699-4.573-2.863 3.391 4.633 4.815zm-6.542-6.798l2.805-3.323-4.542-4.421-2.74 3.092 4.477 4.652zm-6.374-6.622l2.627-2.965.054-.061-4.042-3.934c-1.05.724-2.043 1.546-2.965 2.465l4.326 4.495zm-6.194-6.435c.907-.888 1.873-1.694 2.889-2.417l-2.611-2.542-.356-.337c-1.219.419-2.392.945-3.507 1.571l3.585 3.725zm-5.489-5.704c.959-.567 1.958-1.068 2.989-1.499a19.81 19.81 0 0 0-2.249-1.293c-1.028.067-2.041.204-3.033.41l2.293 2.382zm-4.566-4.536l.005-.001-.009-.002.004.003zm-495.918 485.195a18.07 18.07 0 0 1 2.15-10.232l17.5 17.03-7.18 7.294a22.54 22.54 0 0 0-1.86 2.136l-4.56-4.174c-3.5-3.214-5.64-7.489-6.05-12.054zm14.52 15.868l7.07-7.18 17.51 17.048-8.34 8.944-18.12-16.595c.57-.777 1.19-1.518 1.88-2.217zm18.24 20.641l8.28-8.884 16.94 16.487-7.58 8.553-17.64-16.156zm19.64 17.987l7.52-8.491 16.4 15.967-6.87 8.143-17.05-15.619zm19.07 17.459l6.82-8.07 15.91 15.49-6.22 7.71-16.51-15.13zm18.53 16.98l6.17-7.65 15.47 15.06-5.61 7.27-16.03-14.68zm18.05 16.53l5.56-7.2 15.05 14.65-5.04 6.81-15.57-14.26zm17.6 16.11l4.98-6.74 14.672 14.28-4.503 6.34-15.149-13.88zm17.18 15.74l4.455-6.27 14.304 13.93-4.005 5.85-14.754-13.51zm16.797 15.38l3.956-5.78 13.971 13.6-3.536 5.36-14.391-13.18zm298.977 277.61l.25.24.598.49-.848-.73zm47.956 37.9l-32.807-28.37c5.716.08 11.466-1.87 15.897-5.87l481.534-434.728c4.884-4.413 7.37-10.572 6.812-16.917-.412-4.797-2.62-9.369-6.195-12.843L-529.011 549.12l3.602-6.442 402.38 368.488c3.501 3.203 5.646 7.49 6.051 12.055l.012-.002c.483 5.513-1.603 10.947-5.728 14.908l-482.359 462.853c-5.83 5.6-14.457 7.11-21.797 4.5zm99.344-864.723l-3.559 6.364-5.642-5.493 3.508-6.084 5.693 5.213zm-7.77-7.116l-3.465 6.008-5.574-5.426 3.413-5.734 5.626 5.152zm-7.698-7.049l-3.368 5.658-5.497-5.352 3.315-5.389 5.55 5.083zm-7.625-6.983l-3.269 5.315-5.422-5.278 3.215-5.052 5.476 5.015zm-7.533-6.899l-3.169 4.979-5.341-5.199 3.113-4.722 5.397 4.942zm-7.448-6.821l-3.066 4.65-5.236-5.097 3.01-4.399 5.292 4.846zm-7.346-6.726l-2.96 4.328-5.146-5.009 2.904-4.084 5.202 4.765zm-7.24-6.631l-2.854 4.015-5.046-4.912 2.795-3.777 5.105 4.674zm-7.126-6.526l-2.745 3.71-4.926-4.794 2.686-3.481 4.985 4.565zm-7.005-6.415l-2.635 3.414-4.799-4.671 2.574-3.193 4.86 4.45zm-6.873-6.294l-2.522 3.128-4.654-4.531 1.508-1.786c.319-.378.648-.744.988-1.097l4.68 4.286zm-7.876-4.818l-1.267 1.501-4.396-4.28c.893-.805 1.848-1.535 2.858-2.184l3.991 3.655c-.408.42-.804.856-1.186 1.308zm-4.84-6.827a25.11 25.11 0 0 0-2.765 2.159l-3.548-3.454a22.55 22.55 0 0 1 3.367-1.398l.272.244 2.674 2.449zm-5.452-4.583a24.99 24.99 0 0 0-2.852 1.35l-2.267-2.207c.959-.182 1.938-.304 2.931-.361.753.361 1.484.768 2.188 1.218zm-502.892 500.625c-1.71 3.207-2.48 6.828-2.16 10.458.43 4.935 2.81 9.498 6.69 12.865l3.77 3.259a26.46 26.46 0 0 1 1.74-2.095l7.69-8.245-17.73-16.242zm19.73 18.071l-7.59 8.14c-.64.691-1.23 1.414-1.76 2.165l18.27 15.8 8.77-9.902-17.69-16.203zm19.69 18.033l-8.72 9.842 17.76 15.37 8.06-9.55-17.1-15.662zm19.12 17.502l-8.01 9.49 17.18 14.86 7.39-9.18-16.56-15.17zm18.58 17.02l-7.35 9.12 16.64 14.38 6.78-8.78-16.07-14.72zm18.1 16.57l-6.74 8.73 16.14 13.95 6.2-8.38-15.6-14.3zm17.63 16.15l-6.16 8.32 15.683 13.56 5.665-7.97-15.188-13.91zm17.22 15.77l-5.62 7.91 15.248 13.18 5.163-7.54-14.791-13.55zm16.833 15.42l-5.118 7.48 14.854 12.84 4.691-7.11-14.427-13.21zm16.478 15.09l-4.648 7.04 14.48 12.53 4.249-6.68-14.081-12.89zm16.146 14.78l-4.205 6.61 14.139 12.23 3.831-6.23-13.765-12.61zm320.103 287.06c6.972.84 14.271-1.28 19.548-6.34l482.369-462.866c4.686-4.494 7.058-10.675 6.508-16.951-.452-5.189-2.899-10.059-6.882-13.707L-524.05 540.248l3.158-5.646 438.461 379.173c3.882 3.356 6.264 7.93 6.694 12.865l.002.012c.493 5.488-1.515 10.96-5.503 15.009l-483.185 490.969c-7.368 7.48-19.537 8.4-28.054 2.43l-3.15-2.58-26.972-23.32zm96.453-870.832l3.117-5.575-5.711-4.939-3.071 5.326 5.665 5.188zm-7.743-7.091l3.03-5.255-5.644-4.882-2.983 5.011 5.597 5.126zm-7.669-7.023l2.942-4.941-5.57-4.816-2.892 4.702 5.52 5.055zm-7.594-6.955l2.849-4.633-5.495-4.752-2.799 4.399 5.445 4.986zm-7.502-6.87l2.756-4.331-5.414-4.682-2.705 4.102 5.363 4.911zm-7.415-6.79l2.661-4.036-5.31-4.591-2.608 3.813 5.257 4.814zm-7.311-6.695l2.564-3.747-5.22-4.514-2.51 3.53 5.166 4.731zm-7.203-6.596l2.464-3.467-5.122-4.428-2.408 3.255 5.066 4.64zm-7.088-6.491l2.362-3.193-5-4.324-2.307 2.989 4.945 4.528zm-6.965-6.378l2.259-2.927-4.709-4.073c-.762.717-1.48 1.49-2.148 2.319l-.218.27 4.816 4.411zm-6.829-6.255l.004-.006a25.95 25.95 0 0 1 2.32-2.516l-3.954-3.419c-.959.572-1.88 1.215-2.754 1.927l4.384 4.014zm-6.397-5.857c.843-.699 1.727-1.339 2.644-1.92l-2.744-2.373-.07-.06-.111-.095c-1.107.337-2.181.754-3.214 1.247l3.495 3.201zm-5.593-5.123c.871-.455 1.772-.861 2.696-1.216-.673-.412-1.369-.786-2.083-1.121a23.45 23.45 0 0 0-2.824.312l2.211 2.025zm-503.934 538.815c-.33-3.729.41-7.369 2.11-10.627l17.92 15.488-8.09 9.13a25.08 25.08 0 0 0-1.65 2.08l-2.93-2.4c-4.27-3.51-6.89-8.37-7.36-13.671zm14.09 15.651l7.98-9.01 17.82 15.4-9.12 10.81-18.36-15.04a21.58 21.58 0 0 1 1.68-2.16zm18.79 18.93l9.07-10.75 17.23 14.89-8.45 10.48-17.85-14.62zm19.96 16.35l8.41-10.42 16.68 14.42-7.83 10.14-17.26-14.14zm19.38 15.88l7.78-10.08 16.18 13.99-7.24 9.78-16.72-13.69zm18.83 15.43l7.2-9.73 15.72 13.59-6.7 9.42-16.22-13.28zm18.34 15.02l6.654-9.36 15.285 13.22-6.189 9.04-15.75-12.9zm17.879 14.65l6.147-8.99 14.889 12.88-5.713 8.66-15.323-12.55zm17.459 14.3l5.671-8.6 14.514 12.55-5.266 8.27-14.919-12.22zm17.069 13.98l5.225-8.21 14.171 12.26-4.845 7.88-14.551-11.93zm16.7 13.69l4.806-7.82 13.85 11.98-4.449 7.48-14.207-11.64zm16.358 13.4l4.411-7.41 13.553 11.72-4.076 7.07-13.888-11.38zm366.047 299.89l-30.711-25.16c8.051 1.7 16.837-.55 22.828-6.64l483.185-490.965c4.512-4.591 6.793-10.795 6.239-17.012-.493-5.582-3.192-10.761-7.596-14.568L-519.549 532.2l2.765-4.945 474.947 389.106c4.288 3.506 6.894 8.357 7.363 13.673l.012-.001c.5 5.546-1.396 10.922-5.303 15.113l-484.01 519.094c-7.914 8.48-21.676 9.35-30.714 1.95zm35.53-940.716l-2.728 4.877-5.684-4.915 2.684-4.655 5.728 4.693zm-7.884-6.459l-2.647 4.589-5.615-4.856 2.601-4.371 5.661 4.638zm-7.812-6.4l-2.563 4.305-5.539-4.789 2.517-4.092 5.585 4.576zm-7.741-6.342l-2.478 4.027-5.463-4.725 2.43-3.817 5.511 4.515zm-7.651-6.268l-2.39 3.754-5.381-4.653 2.341-3.55 5.43 4.449zm-7.567-6.199l-2.299 3.488-5.275-4.561 2.25-3.289 5.324 4.362zm-7.464-6.116l-2.208 3.228-5.183-4.482 2.157-3.034 5.234 4.288zm-7.36-6.029l-2.114 2.973-5.083-4.395 1.615-2.182c.149-.201.301-.4.456-.596l5.126 4.2zm-7.87-5.095l-1.395 1.885-4.919-4.255c.716-.81 1.483-1.569 2.297-2.273l4.655 3.813a28.95 28.95 0 0 0-.638.83zm-6.134-6.378c-.787.697-1.534 1.441-2.237 2.23l-4.315-3.732c.844-.627 1.727-1.195 2.641-1.702l3.911 3.204zm-6.114-5.009c-.868.52-1.707 1.091-2.514 1.712l-3.444-2.979c.994-.437 2.017-.807 3.06-1.107.025.021.05.041.075.061l2.823 2.313zm-5.619-4.258a26.7 26.7 0 0 0-2.542 1.086l-2.168-1.874c.55-.086 1.107-.154 1.668-.202.334-.029.669-.051 1.002-.066.694.315 1.375.667 2.04 1.056zm-506.196 558.259a19.93 19.93 0 0 0-2.05 10.71c.51 5.68 3.36 10.83 8.05 14.48l2.04 1.59c.5-.74 1.04-1.45 1.62-2.15l8.35-9.88-18.01-14.75zm20.12 16.48l-8.26 9.78a21.39 21.39 0 0 0-1.64 2.21l18.4 14.33 9.4-11.66-17.9-14.66zm20.01 16.39l-9.35 11.61 17.89 13.93 8.77-11.36-17.31-14.18zm19.42 15.91l-8.72 11.31 17.31 13.47 8.17-11.05-16.76-13.73zm18.88 15.47l-8.14 10.99 16.77 13.05 7.62-10.72-16.25-13.32zm18.37 15.05l-7.58 10.67 16.261 12.66 7.112-10.39-15.793-12.94zm17.921 14.68l-7.072 10.34 15.801 12.3 6.631-10.06-15.36-12.58zm17.495 14.33l-6.592 10 15.366 11.96 6.18-9.71-14.954-12.25zm17.103 14.02l-6.142 9.65 14.97 11.65 5.756-9.36-14.584-11.94zm16.733 13.7l-5.719 9.3 14.601 11.37 5.356-9-14.238-11.67zm16.389 13.43l-5.32 8.94 14.258 11.1 4.98-8.64-13.918-11.4zm16.074 13.17l-4.945 8.57 13.93 10.85 4.625-8.27-13.61-11.15zm357.489 290.71l33.534 26.11c9.538 7.42 23.747 6.18 31.684-2.76L1.687 948.646c3.785-4.27 5.603-9.672 5.116-15.208l-.011.013c-.508-5.697-3.352-10.835-8.045-14.491l-511.784-398.404-2.41 4.31 475.456 389.523c4.821 3.956 7.784 9.43 8.308 15.429.548 6.264-1.579 12.322-5.985 17.052l-484.008 519.11c-6.806 7.29-17.483 9.59-26.69 6.54zm30.744-949.436l2.375-4.248-5.741-4.469-2.334 4.048 5.7 4.669zm-7.856-6.436l2.299-3.987-5.674-4.416-2.256 3.79 5.631 4.613zm-7.782-6.375l2.22-3.731-5.598-4.358-2.176 3.538 5.554 4.551zm-7.71-6.317l2.139-3.479-5.524-4.3-2.094 3.29 5.479 4.489zm-7.619-6.242l2.057-3.232-5.442-4.237-2.01 3.049 5.395 4.42zm-7.532-6.171l1.972-2.99-5.336-4.155-1.924 2.813 5.288 4.332zm-7.429-6.085l1.886-2.756-5.144-4.004c-.564.643-1.096 1.317-1.595 2.019l-.343.483 5.196 4.258zm-7.322-5.999l.136-.192a28.45 28.45 0 0 1 1.776-2.244l-4.604-3.584c-.777.621-1.517 1.288-2.216 1.999l4.908 4.021zm-7.009-5.743a27.52 27.52 0 0 1 2.14-1.972l-3.875-3.017c-.87.454-1.71.958-2.515 1.508l4.25 3.481zm-6.406-5.247c.764-.549 1.557-1.058 2.377-1.527l-2.855-2.223a25.39 25.39 0 0 0-2.903.979l3.381 2.771zm-5.685-4.658c.781-.362 1.578-.686 2.388-.973-.634-.358-1.285-.685-1.949-.981a25.19 25.19 0 0 0-2.545.228l2.106 1.726zm-507.478 596.949c-.33-3.72.36-7.4 1.96-10.73l18.05 14.05-8.52 10.56c-.58.73-1.12 1.48-1.62 2.25l-1.12-.84c-5.03-3.73-8.22-9.3-8.75-15.29zm13.73 15.46l8.43-10.46 17.94 13.96-9.61 12.46-18.4-13.65a22.57 22.57 0 0 1 1.64-2.31zm18.96 17.59l9.57-12.41 17.35 13.51-9.01 12.18-17.91-13.28zm20.1 14.91l8.98-12.13 16.81 13.08-8.46 11.9-17.33-12.85zm19.52 14.48l8.42-11.85 16.31 12.69-7.94 11.61-16.79-12.45zm18.99 14.08l7.903-11.55 15.838 12.33-7.452 11.3-16.289-12.08zm18.497 13.72l7.417-11.25 15.401 11.99-6.996 10.99-15.822-11.73zm18.044 13.38l6.961-10.94 15.003 11.68-6.568 10.68-15.396-11.42zm17.616 13.07l6.533-10.63 14.633 11.39-6.165 10.36-15.001-11.12zm17.221 12.77l6.132-10.3 14.288 11.12-5.785 10.03-14.635-10.85zm16.858 12.5l5.753-9.97 13.959 10.86-5.427 9.71-14.285-10.6zm16.522 12.25l5.395-9.64 370.717 288.59-376.112-278.95zm426.217 316.11l-37.891-28.1c10.46 5.64 24.094 3.57 32.06-5.42L3.829 950.341c4.259-4.806 6.297-10.876 5.755-17.106-.566-6.403-3.77-12.187-9.045-16.287l-512.245-398.771 2.101-3.756L39.342 921.546c5.027 3.733 8.213 9.297 8.737 15.296l.012-.002c.485 5.525-1.266 10.965-4.94 15.316L-442.51 1527.49c-7.957 9.44-22.613 11.05-32.665 3.59zm-36.673-1018.321l-2.068 3.698-5.712-4.447 2.028-3.518 5.752 4.267zm-7.976-5.916l-1.996 3.461-5.643-4.393 1.954-3.284 5.685 4.216zm-7.905-5.863l-1.921 3.228-5.567-4.333 1.879-3.055 5.609 4.16zm-7.836-5.812l-1.845 2.999-5.491-4.274 1.801-2.83 5.535 4.105zm-7.747-5.745l-1.766 2.775-5.408-4.21 1.3-1.972.429-.631 5.445 4.038zm-8.259-4.781l-1.09 1.653-5.267-4.101c.593-.771 1.227-1.506 1.899-2.203l5.069 3.76a32.57 32.57 0 0 0-.611.891zm-6.666-6.288a28.93 28.93 0 0 0-1.858 2.154l-4.82-3.753a25.68 25.68 0 0 1 2.139-1.767l4.539 3.366zm-6.785-5.032a28.57 28.57 0 0 0-2.053 1.752l-4.194-3.265a25.52 25.52 0 0 1 2.401-1.339l3.846 2.852zm-6.223-4.615c-.775.421-1.527.876-2.255 1.365l-3.328-2.591a26.03 26.03 0 0 1 2.76-.868l2.823 2.094zm-5.757-3.973a27.97 27.97 0 0 0-2.24.868l-2.021-1.573c.802-.101 1.609-.165 2.419-.19a23.31 23.31 0 0 1 1.842.895zm-509.648 616.206c-1.52 3.35-2.17 7.01-1.85 10.69.57 6.39 4 12.25 9.46 16.11l.18.13c.5-.83 1.06-1.63 1.66-2.41l8.59-11.14-18.04-13.38zm20.24 15.01l-8.52 11.04a23.4 23.4 0 0 0-1.67 2.48l18.36 13.01 9.78-13.22-17.95-13.31zm20.15 14.94l-9.75 13.17 17.9 12.67 9.21-12.96-17.36-12.88zm19.56 14.51l-9.18 12.91 17.31 12.27 8.69-12.71-16.82-12.47zm19.03 14.11l-8.66 12.65 16.785 11.89 8.197-12.43-16.322-12.11zm18.531 13.74l-8.165 12.39 16.285 11.53 7.737-12.16-15.857-11.76zm18.079 13.41l-7.704 12.11 15.83 11.21 7.304-11.88-15.43-11.44zm17.649 13.09l-7.272 11.82 15.409 10.92 6.896-11.59-15.033-11.15zm17.254 12.8l-6.866 11.53 15.018 10.64 6.513-11.3-14.665-10.87zm16.888 12.52l-6.482 11.24 14.645 10.38 6.151-11-14.314-10.62zm16.551 12.28l-6.121 10.94 473.319 335.24c10.564 7.47 25.655 5.5 33.638-4.4L84.604 955.667c3.566-4.419 5.261-9.9 4.776-15.424l-.011.012c-.563-6.379-4.003-12.252-9.444-16.111L-506.473 508.82l-1.817 3.248L41.079 919.505c5.633 4.175 9.197 10.418 9.793 17.132.55 6.194-1.422 12.292-5.536 17.162l-485.661 575.331c-8.912 10.56-25.332 12.36-36.586 4.01l-425.807-315.79zm392.186-706.944l1.787-3.195-5.763-4.082-1.747 3.032 5.723 4.245zm-7.947-5.895l1.717-2.978-5.695-4.034-1.677 2.818 5.655 4.194zm-7.876-5.84l1.647-2.766-5.619-3.98-1.605 2.609 5.577 4.137zm-7.804-5.789l1.573-2.557-5.435-3.85a27.17 27.17 0 0 0-1.561 2.203l-.079.124 5.502 4.08zm-7.713-5.72c.506-.783 1.046-1.539 1.619-2.267l-5.012-3.55c-.645.61-1.261 1.254-1.847 1.931l5.24 3.886zm-7.435-5.514a29.52 29.52 0 0 1 1.79-1.898l-4.483-3.176a26.38 26.38 0 0 0-2.044 1.561l4.737 3.513zm-6.968-5.168c.626-.545 1.276-1.063 1.948-1.553l-3.793-2.687a26.5 26.5 0 0 0-2.277 1.183l4.122 3.057zm-6.436-4.773c.689-.433 1.398-.838 2.125-1.214l-2.807-1.988a26.81 26.81 0 0 0-2.603.766l3.285 2.436zm-5.803-4.304a29.55 29.55 0 0 1 2.081-.771 24.55 24.55 0 0 0-1.779-.836c-.75.021-1.502.074-2.255.159l1.953 1.448zm-511.046 655.117c-.32-3.65.29-7.28 1.73-10.62l17.99 12.74-8.6 11.63a24.63 24.63 0 0 0-1.71 2.63c-5.43-3.99-8.83-9.91-9.41-16.38zm13.41 15.25l8.54-11.55 17.94 12.7-9.91 13.95-18.3-12.41c.51-.93 1.09-1.82 1.73-2.69zm18.83 16.63l9.88-13.9 17.36 12.29-9.38 13.71-17.86-12.1zm20.13 13.64l9.34-13.66 16.83 11.91-8.88 13.47-17.29-11.72zm19.56 13.26l8.847-13.42 16.32 11.56-8.412 13.22-16.755-11.36zm19.04 12.91l8.382-13.18 15.864 11.24-7.974 12.96-16.272-11.02zm18.552 12.57l7.945-12.92 15.441 10.94-7.562 12.71-15.824-10.73zm18.104 12.27l7.533-12.65 15.048 10.65-7.174 12.44-15.407-10.44zm17.69 11.99l7.146-12.39 14.674 10.39-6.809 12.18-15.011-10.18zm17.306 11.73l6.781-12.12 472.97 334.98c11.789 8.36 28.638 6.15 37.545-4.91L86.844 957.257c3.981-4.936 5.875-11.06 5.329-17.219-.627-7.131-4.481-13.678-10.554-17.987l-586.777-415.584 1.556-2.782L120.521 926.73c5.868 3.984 9.571 10.152 10.174 16.923.485 5.525-1.157 11.034-4.626 15.524l-487.311 631.593c-8.004 10.37-23.543 12.72-34.608 5.21l-521.088-353.21zm411.037-740.644l-1.529 2.733-5.733-4.061 1.49-2.584 5.772 3.912zm-8.055-5.46l-1.461 2.535-5.665-4.012.707-1.188c.239-.401.488-.795.744-1.181l5.675 3.846zm-8.854-3.951l-.523.88-5.53-3.916a28.15 28.15 0 0 1 1.603-2.031l5.358 3.632a31.91 31.91 0 0 0-.908 1.435zm-6.728-6.611a30.46 30.46 0 0 0-1.568 1.986l-5.152-3.649a27.72 27.72 0 0 1 1.769-1.693l4.951 3.356zm-7.258-4.919c-.589.534-1.156 1.091-1.701 1.67l-4.667-3.305c.628-.484 1.275-.939 1.941-1.366l4.427 3.001zm-6.822-4.624c-.628.432-1.241.887-1.836 1.367l-4.061-2.876a27.75 27.75 0 0 1 2.138-1.039l3.759 2.548zm-6.326-4.289c-.676.335-1.336.692-1.98 1.073l-3.209-2.272a27.91 27.91 0 0 1 2.431-.67l2.758 1.869zm-5.892-3.739c-.651.206-1.292.433-1.923.68l-1.892-1.34a27.29 27.29 0 0 1 2.094-.128c.583.241 1.157.504 1.721.788zm-513.204 674.377c-1.35 3.32-1.9 6.91-1.59 10.48.57 6.5 3.89 12.41 9.18 16.51.53-.96 1.11-1.9 1.76-2.82l8.56-12.03-17.91-12.14zm20.17 13.67l-8.5 11.96a25.02 25.02 0 0 0-1.8 2.95l18.2 11.83 10-14.61-17.9-12.13zm20.17 13.67l-9.97 14.56 17.8 11.58 9.49-14.4-17.32-11.74zm19.6 13.28l-9.47 14.35 17.24 11.21 9.017-14.17-16.787-11.39zm19.072 12.93l-8.989 14.13 16.72 10.87 8.576-13.94-16.307-11.06zm18.587 12.6l-8.548 13.9 16.244 10.56 8.159-13.71-15.855-10.75zm18.136 12.3l-8.132 13.66 15.802 10.27 7.767-13.47-15.437-10.46zm17.72 12.01l-7.74 13.42 15.383 10 7.398-13.23-15.041-10.19zm17.336 11.75l-7.372 13.18 569.427 370.13c5.611 3.64 12.396 5.03 19.126 3.89 6.717-1.14 12.566-4.67 16.465-9.93l488.137-659.703c3.373-4.56 4.972-10.111 4.476-15.623l.011-.013c-.634-7.177-4.613-13.639-10.906-17.735l-662.076-430.349-.195.345-1.134 2.028 624.45 423.268c6.537 4.429 10.656 11.283 11.327 18.829.542 6.137-1.288 12.276-5.147 17.279l-487.313 631.574c-8.915 11.55-26.194 14.16-38.517 5.81l-520.759-352.98zm413.659-745.339l.945-1.69.363-.632-5.623-3.655a29.97 29.97 0 0 0-1.417 2.092l5.732 3.885zm-8.006-5.427c.44-.7.905-1.381 1.395-2.042l-5.281-3.433a28.9 28.9 0 0 0-1.564 1.781l5.45 3.694zm-7.718-5.231c.485-.604.991-1.187 1.516-1.75l-4.894-3.181a28.64 28.64 0 0 0-1.695 1.492l5.073 3.439zm-7.371-4.996a31.47 31.47 0 0 1 1.62-1.477l-4.386-2.851a28.65 28.65 0 0 0-1.838 1.207l4.604 3.121zm-6.963-4.72a30.72 30.72 0 0 1 1.727-1.213l-3.697-2.404c-.683.28-1.355.586-2.014.917l3.984 2.7zm-6.477-4.39c.607-.338 1.225-.655 1.853-.951l-2.728-1.774c-.773.166-1.533.362-2.279.587l3.154 2.138zm-5.905-4.003c.583-.217 1.175-.417 1.775-.601-.532-.259-1.071-.499-1.617-.721a28 28 0 0 0-1.958.102l1.8 1.22zm-514.67 713.256c-.32-3.56.17-7.05 1.43-10.33l17.8 11.58-8.47 12.38c-.67.98-1.26 1.98-1.79 3-5.18-4.2-8.4-10.11-8.97-16.63zm13.11 15.04l8.42-12.3 17.84 11.6-10.05 15.24-17.67-11.03-.42-.27c.54-1.11 1.17-2.19 1.88-3.24zm18.54 16l10.02-15.21 17.27 11.23-9.57 15.04-17.72-11.06zm20.06 12.52l9.54-15 16.759 10.9-9.125 14.83-17.174-10.73zm19.508 12.19l9.099-14.79 16.276 10.58-8.704 14.62-16.671-10.41zm19.005 11.87l8.678-14.58 15.833 10.29-8.307 14.41-16.204-10.12zm18.538 11.57l8.282-14.36 15.413 10.02-7.934 14.19-15.761-9.85zm18.106 11.31l7.91-14.14 569.131 369.96c6.225 4.04 13.763 5.57 21.221 4.31 7.469-1.28 13.949-5.19 18.269-11.02l488.137-659.704c3.74-5.06 5.506-11.214 4.965-17.339-.702-7.963-5.112-15.133-12.099-19.672l-662.222-430.461a30.64 30.64 0 0 1 1.38-1.821l699.84 437.032c6.731 4.207 10.985 10.964 11.649 18.546l-.011.013c.506 5.592-1.007 11.039-4.338 15.722l-488.962 687.834c-3.919 5.49-9.862 9.23-16.77 10.52s-13.942-.01-19.804-3.66l-618.296-386.12zm434.349-781.35c-.468.578-.917 1.173-1.346 1.783l-5.371-3.491c.478-.536.976-1.055 1.492-1.555l5.225 3.263zm-7.586-4.737c-.495.495-.974 1.005-1.436 1.531l-4.981-3.238a29.73 29.73 0 0 1 1.604-1.299l4.813 3.006zm-7.248-4.526c-.519.414-1.027.844-1.521 1.29l-4.54-2.952c.558-.368 1.131-.719 1.716-1.051l4.345 2.713zm-6.898-4.308c-.546.338-1.08.692-1.603 1.061l-3.927-2.553c.61-.285 1.232-.551 1.866-.796l3.664 2.288zm-6.414-4.005a31.53 31.53 0 0 0-1.703.831l-3.063-1.991a29.38 29.38 0 0 1 2.098-.506l2.668 1.666zm-6.018-3.539a33.43 33.43 0 0 0-1.607.521l-1.714-1.114a28.76 28.76 0 0 1 1.782-.076 27.51 27.51 0 0 1 1.539.669zm-516.872 732.745c-1.15 3.22-1.59 6.62-1.28 10.09.58 6.54 3.72 12.46 8.79 16.76.53-1.09 1.14-2.15 1.83-3.19l8.33-12.63-17.67-11.03zm20 12.48l-8.29 12.57c-.75 1.13-1.4 2.31-1.95 3.51.45.31.91.6 1.37.88l16.56 9.95 10.06-15.82-17.75-11.09zm20.1 12.56l-10.04 15.77 17.63 10.6 9.616-15.63-17.206-10.74zm19.54 12.2l-9.59 15.59 17.108 10.28 9.186-15.44-16.704-10.43zm19.037 11.89l-9.162 15.39 16.611 9.99 8.786-15.24-16.235-10.14zm18.57 11.6l-8.763 15.19 16.144 9.7 8.409-15.03-15.79-9.86zm18.136 11.32l-8.386 15 667.667 401.23c12.616 7.58 29.445 4.12 37.54-7.7l489.789-715.948c3.249-4.744 4.709-10.22 4.211-15.836l.002.011c-.706-7.986-5.224-15.038-12.404-19.355l-737.185-443.005c-.496.445-.977.906-1.442 1.382l699.564 436.858c7.462 4.657 12.15 12.133 12.895 20.511.539 6.195-1.11 12.208-4.795 17.4l-488.976 687.822c-4.31 6.08-10.908 10.22-18.542 11.66-7.636 1.42-15.421-.01-21.894-4.06l-618.044-385.97zm437.428-785.698c.446-.468.906-.922 1.379-1.364l-4.776-2.87c-.523.37-1.034.756-1.531 1.157l4.928 3.077zm-7.335-4.58c.47-.397.952-.781 1.445-1.152l-4.257-2.559c-.554.295-1.098.607-1.633.935l4.445 2.776zm-6.961-4.347c.496-.329 1.001-.645 1.514-.947l-3.631-2.182a30.78 30.78 0 0 0-1.761.707l3.878 2.422zm-6.565-4.099a33.12 33.12 0 0 1 1.597-.743l-2.636-1.584c-.428.083-.856.175-1.282.277l-.687.171 3.008 1.879zm-5.985-3.738c.489-.164.983-.317 1.483-.459-.469-.214-.943-.414-1.421-.602-.558.004-1.115.022-1.671.056l1.609 1.005zM-1043.9 1246.03c-.3-3.37.09-6.7 1.14-9.85.28.18.57.36.86.53l16.63 9.99-8.16 12.82a30.14 30.14 0 0 0-1.85 3.38c-4.92-4.4-8.05-10.41-8.62-16.87zm12.88 14.85l8.11-12.75 17.68 10.62-10.08 16.38-15.41-8.93c-.81-.46-1.58-.97-2.32-1.5a25.9 25.9 0 0 1 2.02-3.82zm18.09 15.63l10.06-16.34 17.134 10.29-9.646 16.21-17.548-10.16zm19.928 11.54l9.623-16.17 16.644 10-9.242 16.03-17.025-9.86zm19.405 11.24l9.22-15.99 16.174 9.72-8.861 15.84-16.533-9.57zm18.923 10.96l8.839-15.81 667.463 401.1c13.913 8.35 32.485 4.55 41.409-8.5l489.789-715.946c3.591-5.24 5.2-11.271 4.65-17.465-.779-8.806-5.768-16.584-13.693-21.35L-492.708 489.7a32.87 32.87 0 0 1 1.414-.995L282.85 937.08c7.522 4.358 12.442 11.899 13.174 20.174.497 5.616-.92 11.134-4.086 15.937l-490.626 744.069c-3.917 5.96-10.101 10.13-17.375 11.75-7.263 1.61-14.772.47-21.135-3.22l-717.476-415.54zm460.804-823.037c-.451.321-.892.652-1.325.993l-4.396-2.641c.489-.28.986-.547 1.492-.802l4.229 2.45zm-6.937-4.018a33.03 33.03 0 0 0-1.373.814l-3.765-2.263c.526-.215 1.058-.416 1.596-.603l3.542 2.052zm-6.492-3.76a33.95 33.95 0 0 0-1.434.636l-2.942-1.768a31.44 31.44 0 0 1 1.774-.375l2.602 1.507zm-6.187-3.382a34.43 34.43 0 0 0-1.293.384l-1.52-.913c.477-.024.954-.037 1.43-.038.465.176.926.365 1.383.567zM-1033.99 1267.3a25.14 25.14 0 0 0-1 9.62c.57 6.48 3.62 12.49 8.45 16.98.54-1.22 1.17-2.41 1.88-3.57l7.96-12.93-15.49-8.97c-.61-.36-1.22-.73-1.8-1.13zm19.67 11.48l-7.92 12.87c-.82 1.33-1.51 2.71-2.08 4.12a29.34 29.34 0 0 0 3.28 2.14l14.23 7.95 10.066-16.9-17.576-10.18zm19.956 11.56l-10.036 16.87 17.439 9.75 9.654-16.74-17.057-9.88zm19.437 11.25l-9.633 16.71 16.927 9.46 9.27-16.57-16.564-9.6zm18.954 10.98l-9.249 16.54 767.707 429.15c6.611 3.68 14.358 4.74 21.811 2.98 7.466-1.77 13.744-6.16 17.691-12.36l491.44-772.182c3.096-4.865 4.471-10.413 3.972-16.041l-.013-.01c-.764-8.691-5.985-16.535-13.955-20.992l-810.736-453.207c-.464.222-.922.453-1.373.694l773.004 447.706c8.274 4.782 13.682 13.083 14.487 22.178.549 6.182-1.006 12.242-4.492 17.528l-490.627 744.066c-4.32 6.56-11.119 11.14-19.118 12.91-8.011 1.78-16.268.53-23.253-3.53l-717.296-415.43zm464.608-826.984a34.86 34.86 0 0 1 1.255-.706l-3.514-1.964c-.492.162-.978.334-1.458.517l3.717 2.153zm-6.597-3.821a35.49 35.49 0 0 1 1.297-.549l-2.509-1.403a33.7 33.7 0 0 0-1.611.317l2.823 1.635zm-6.058-3.509c.379-.115.761-.224 1.144-.327a30.16 30.16 0 0 0-1.272-.513c-.428-.001-.856.006-1.285.022l1.413.818zm-522.09 829.544a25.69 25.69 0 0 1 .88-9.37c.88.61 1.79 1.19 2.74 1.72l14.32 8-7.73 12.99c-.73 1.23-1.37 2.48-1.91 3.77-4.74-4.57-7.73-10.6-8.3-17.11zm12.64 14.63l7.7-12.93 17.479 9.76-10.027 17.39-13.062-7.05c-1.5-.81-2.91-1.74-4.22-2.77.58-1.51 1.29-2.98 2.13-4.4zm17.573 15.53l10.007-17.35 16.957 9.48-9.638 17.23-17.326-9.36zm19.756 10.67l9.619-17.2 767.559 429.08c7.244 4.05 15.738 5.21 23.925 3.26 8.188-1.93 15.08-6.75 19.405-13.55l491.44-772.182c3.391-5.345 4.905-11.435 4.358-17.606-.839-9.523-6.56-18.125-15.309-23.014l-809.048-452.263a32.09 32.09 0 0 1 1.313-.441l846.904 457.527c8.418 4.555 13.929 12.704 14.735 21.798l-.011.013c.488 5.641-.846 11.219-3.871 16.146l-492.265 800.312c-8.16 13.27-26.318 17.84-40.471 10.2l-818.283-442.08zm490.112-865.618a36.82 36.82 0 0 0-1.158.468l-2.766-1.546a33.92 33.92 0 0 1 1.438-.265l2.486 1.343zm-6.942-3.046l-.334.095-1.254-.701a31.37 31.37 0 0 1 1.106-.011 30.96 30.96 0 0 1 1.127.443l-.645.174zm-523.489 849.564a26.83 26.83 0 0 0-.78 9.15c.58 6.54 3.51 12.59 8.17 17.23.54-1.35 1.19-2.67 1.93-3.95l7.498-13.01-13.138-7.1c-1.29-.7-2.52-1.47-3.68-2.32zm19.238 10.73l-7.468 12.95c-.87 1.51-1.6 3.08-2.17 4.69 1.57 1.28 3.29 2.41 5.15 3.38l11.863 6.2 9.982-17.84-17.357-9.38zm19.786 10.69l-9.963 17.81 869.198 454.4c7.112 3.72 15.333 4.61 23.167 2.53s14.326-6.9 18.297-13.57l493.09-828.425c2.957-4.978 4.262-10.587 3.771-16.251-.837-9.511-6.639-17.975-15.516-22.616l-882.416-461.292c-.423.065-.844.138-1.265.219l844.484 456.231c9.221 4.984 15.246 13.9 16.117 23.852.535 6.172-.914 12.278-4.236 17.672l-492.265 800.31c-8.936 14.52-28.81 19.54-44.291 11.17l-818.172-442.04zm494.874-869.08l-1.162-.628a33.9 33.9 0 0 1 .902-.002c.362.131.723.269 1.082.413l-.822.217zm-525.798 887.68c-.26-2.99-.03-5.99.68-8.88a33.72 33.72 0 0 0 4.6 2.9l11.933 6.24-7.25 12.96c-.749 1.34-1.395 2.72-1.933 4.13-4.59-4.71-7.45-10.77-8.03-17.35zm12.449 14.43l7.212-12.89 869.165 454.35c7.753 4.05 16.733 5.03 25.284 2.75 8.553-2.27 15.646-7.53 19.981-14.81l493.091-828.426c3.231-5.431 4.651-11.568 4.104-17.739-.919-10.389-7.247-19.62-16.952-24.687l-878.771-459.387.646.004a32.7 32.7 0 0 1 3.811 1.637l913.517 462.624c9.349 4.736 15.451 13.491 16.321 23.43l.002.012c.503 5.662-.771 11.315-3.671 16.344L-36.086 1843.75c-8.205 14.23-27.243 19.55-42.433 11.87l-913.519-462.65c-2.219-1.12-4.255-2.47-6.082-4.01.573-1.71 1.311-3.37 2.209-4.98zm-2.998 7.81c1.702 1.32 3.555 2.49 5.544 3.5l913.531 462.64c16.538 8.38 37.288 2.57 46.227-12.94l493.916-856.552c3.161-5.481 4.528-11.647 3.993-17.819-.963-10.816-7.607-20.359-17.783-25.51l-909.286-460.493a33.7 33.7 0 0 1 5.011 1.987l943.504 463.403c9.807 4.81 16.213 13.879 17.126 24.234l.012-.002c.506 5.674-.726 11.368-3.569 16.449L4.575 1875.36c-3.995 7.13-10.704 12.38-18.903 14.78-8.211 2.41-16.909 1.67-24.522-2.07l-943.515-463.39c-9.796-4.82-16.2-13.88-17.115-24.25a28.05 28.05 0 0 1 .571-8.64z" fill="#000" fill-opacity=".1"/></g><defs><clipPath id="A"><path fill="#fff" d="M0 0h549v1132H0z"/></clipPath></defs></svg>